<svg width="32" height="32" viewBox="0 0 32 32" fill="none" xmlns="http://www.w3.org/2000/svg">
<path d="M2.66699 29.3333L21.3337 10.6666" stroke="white" stroke-width="2" stroke-linecap="round" stroke-linejoin="round"/>
<path d="M4.62695 16.7066L6.66695 14.6666L8.70695 16.7066C9.57815 17.5813 10.0673 18.7655 10.0673 20C10.0673 21.2345 9.57815 22.4187 8.70695 23.2933L6.66695 25.3333L4.62695 23.2933C3.75575 22.4187 3.2666 21.2345 3.2666 20C3.2666 18.7655 3.75575 17.5813 4.62695 16.7066Z" stroke="white" stroke-width="2" stroke-linecap="round" stroke-linejoin="round"/>
<path d="M9.95996 11.3734L12 9.33337L14.04 11.3734C14.9112 12.248 15.4003 13.4322 15.4003 14.6667C15.4003 15.9012 14.9112 17.0854 14.04 17.96L12 20L9.95996 17.96C9.08876 17.0854 8.59961 15.9012 8.59961 14.6667C8.59961 13.4322 9.08876 12.248 9.95996 11.3734Z" stroke="white" stroke-width="2" stroke-linecap="round" stroke-linejoin="round"/>
<path d="M15.293 6.04L17.333 4L19.373 6.04C20.2442 6.91464 20.7333 8.09884 20.7333 9.33333C20.7333 10.5678 20.2442 11.752 19.373 12.6267L17.333 14.6667L15.293 12.6267C14.4218 11.752 13.9326 10.5678 13.9326 9.33333C13.9326 8.09884 14.4218 6.91464 15.293 6.04Z" stroke="white" stroke-width="2" stroke-linecap="round" stroke-linejoin="round"/>
<path d="M26.6663 2.66663H29.333V5.33329C29.333 6.74778 28.7711 8.10434 27.7709 9.10453C26.7707 10.1047 25.4142 10.6666 23.9997 10.6666H21.333V7.99996C21.333 6.58547 21.8949 5.22892 22.8951 4.22872C23.8953 3.22853 25.2519 2.66663 26.6663 2.66663Z" stroke="white" stroke-width="2" stroke-linecap="round" stroke-linejoin="round"/>
<path d="M15.2937 23.2933L17.3337 25.3333L15.2937 27.3733C14.419 28.2445 13.2348 28.7337 12.0003 28.7337C10.7658 28.7337 9.58163 28.2445 8.70699 27.3733L6.66699 25.3333L8.70699 23.2933C9.58163 22.4221 10.7658 21.933 12.0003 21.933C13.2348 21.933 14.419 22.4221 15.2937 23.2933Z" stroke="white" stroke-width="2" stroke-linecap="round" stroke-linejoin="round"/>
<path d="M20.6267 17.96L22.6667 20L20.6267 22.04C19.752 22.9112 18.5678 23.4003 17.3333 23.4003C16.0988 23.4003 14.9146 22.9112 14.04 22.04L12 20L14.04 17.96C14.9146 17.0888 16.0988 16.5996 17.3333 16.5996C18.5678 16.5996 19.752 17.0888 20.6267 17.96Z" stroke="white" stroke-width="2" stroke-linecap="round" stroke-linejoin="round"/>
<path d="M25.9597 12.6267L27.9997 14.6667L25.9597 16.7067C25.085 17.5779 23.9008 18.0671 22.6663 18.0671C21.4318 18.0671 20.2476 17.5779 19.373 16.7067L17.333 14.6667L19.373 12.6267C20.2476 11.7555 21.4318 11.2664 22.6663 11.2664C23.9008 11.2664 25.085 11.7555 25.9597 12.6267Z" stroke="white" stroke-width="2" stroke-linecap="round" stroke-linejoin="round"/>
</svg>
