<svg width="32" height="32" viewBox="0 0 32 32" fill="none" xmlns="http://www.w3.org/2000/svg">
<path d="M9.33333 21.7333C12.2667 21.7333 14.6667 19.2933 14.6667 16.3333C14.6667 14.7867 13.9067 13.32 12.3867 12.08C10.8667 10.84 9.72 8.99998 9.33333 7.06665C8.94667 8.99998 7.81333 10.8533 6.28 12.08C4.74667 13.3067 4 14.8 4 16.3333C4 19.2933 6.4 21.7333 9.33333 21.7333Z" stroke="white" stroke-width="2" stroke-linecap="round" stroke-linejoin="round"/>
<path d="M16.7468 8.79994C17.6638 7.33478 18.3139 5.71867 18.6668 4.02661C19.3335 7.35994 21.3335 10.5599 24.0001 12.6933C26.6668 14.8266 28.0001 17.3599 28.0001 20.0266C28.0077 21.8697 27.4679 23.6735 26.4492 25.2094C25.4304 26.7453 23.9785 27.9441 22.2776 28.6539C20.5767 29.3637 18.7033 29.5525 16.895 29.1963C15.0867 28.8401 13.4248 27.9551 12.1201 26.6533" stroke="white" stroke-width="2" stroke-linecap="round" stroke-linejoin="round"/>
</svg>
