<svg width="1783" height="525" viewBox="0 0 1783 525" fill="none" xmlns="http://www.w3.org/2000/svg">
<path d="M1152.9 100.998L1682.02 100.95L1682.04 453.071C1623.76 452.256 1563.46 453.055 1505.03 453.055L1152.94 453.056L1152.9 100.998ZM1168.16 438.875L1667.05 438.918L1667.03 115.677L1341.21 115.626C1284.19 115.628 1225.03 114.803 1168.16 115.716V438.875Z" fill="white"/>
<path d="M1532.51 258.26C1533.23 259.541 1536.55 269.428 1537.29 271.487L1552.39 271.605C1548.37 274.041 1543.92 277.566 1540.1 280.433C1540.94 283.985 1543.31 290.413 1544.55 294.077C1540.59 291.722 1536.26 288.173 1532.56 285.299C1528.42 288.91 1526.12 290.501 1521.48 293.484C1522.37 288.868 1523.62 284.887 1524.97 280.415C1521.51 277.206 1516.85 274.253 1512.89 271.568L1528.03 271.487C1528.99 267.651 1531.14 262.12 1532.51 258.26Z" fill="white"/>
<path d="M1317.12 200.69C1319.44 202.913 1321.61 210.65 1322.7 213.986L1336.53 214.084L1325.37 222.382C1327.01 226.627 1327.87 230.834 1328.89 235.254C1325.06 233.175 1321.18 230.096 1317.65 227.46C1314.88 230.195 1309.06 234.059 1305.7 236.438L1310.68 222.333C1306.2 219.529 1303.76 217.14 1298.51 214.158L1313.13 213.997C1314.85 209.595 1315.92 205.241 1317.12 200.69Z" fill="white"/>
<path d="M1302.16 258.449C1303.4 259.841 1305.99 269.289 1306.63 271.473L1322.15 271.566C1318.22 273.862 1313.35 277.672 1309.6 280.45L1313.89 294.083C1310.3 291.636 1306.39 288.601 1302.86 285.989C1300.74 286.363 1293.25 292.098 1290.89 293.711C1291.94 289.226 1293.28 284.909 1294.62 280.503C1291.42 277.616 1286.41 274.177 1282.84 271.562L1297.73 271.504C1298.79 267.287 1300.65 262.583 1302.16 258.449Z" fill="white"/>
<path d="M1359.55 358.408C1361.89 360.168 1363.71 368.356 1364.52 371.457L1379.2 371.592C1375.36 374.11 1371.45 377.178 1367.77 379.965L1371.69 393.783L1360.24 385.394C1355.51 388.456 1352.41 391.056 1348.11 394.626C1349.88 389.539 1350.99 384.967 1352.28 379.769C1349.21 377.23 1344.32 373.975 1340.97 371.593L1355.67 371.491C1356.87 367.102 1358.16 362.74 1359.55 358.408Z" fill="white"/>
<path d="M1359.86 158.869C1362.3 163.76 1362.99 166.664 1364.37 171.846L1379.46 172.088C1375.89 174.359 1371.12 178.134 1367.61 180.744C1368.96 185.344 1370.4 189.917 1371.93 194.463C1367.62 191.71 1364.06 188.907 1360.06 185.795C1356.66 188.697 1352.08 191.78 1348.38 194.423C1349.88 189.879 1351.08 185.162 1352.33 180.536C1348.07 177.236 1345.17 174.948 1340.45 172.222C1345.73 171.973 1350.33 172.003 1355.59 172.081C1356.92 167.337 1358.19 163.51 1359.86 158.869Z" fill="white"/>
<path d="M1474.89 158.989L1479.53 171.946L1493.82 172.219L1482.02 180.869C1483.64 184.953 1485.18 190.175 1486.56 194.421L1474.96 186.259C1473.13 186.968 1465.03 192.87 1462.8 194.309L1467.43 180.894L1455.83 172.267C1460.56 171.977 1465.11 172.026 1469.84 172.045L1474.89 158.989Z" fill="white"/>
<path d="M1516.73 316.562C1518.06 318.244 1520.92 326.476 1521.86 328.979L1536.32 329.054C1532.36 331.945 1528.43 334.859 1524.5 337.796L1529.24 352.029C1524.87 348.632 1521.87 346.283 1517.04 343.44C1513.5 345.228 1508.22 349.507 1504.89 352.026L1509.6 337.621L1497.86 329.114L1512.24 329.014L1516.73 316.562Z" fill="white"/>
<path d="M1317.18 315.643C1319.33 317.946 1321.46 325.691 1322.49 328.993L1336.78 329.043C1333.04 331.915 1329.29 334.767 1325.52 337.599C1326.93 341.909 1328.13 347.1 1329.26 351.557C1324.83 347.949 1322.7 346.206 1317.63 343.357C1314.02 345.527 1309.23 349.439 1305.77 352.092L1310.58 337.801L1298.95 329.117L1313.17 328.997C1315.05 324.362 1315.96 320.446 1317.18 315.643Z" fill="white"/>
<path d="M1417.08 375.113C1418.27 376.229 1421.39 385.747 1422.19 387.976L1436.87 388.158C1433.09 391.114 1428.67 394.202 1424.76 397.076L1429.8 411.552C1425.71 408.286 1422.06 405.583 1417.82 402.561C1413.81 404.415 1408.74 408.76 1405.13 411.607L1410.26 396.877L1397.99 388.191C1402.92 388.031 1408.01 388.101 1412.95 388.102C1414.41 383.852 1415.74 379.413 1417.08 375.113Z" fill="white"/>
<path d="M1417.11 143.479C1418.78 145.244 1421.42 153.769 1422.36 156.494L1435.92 156.571C1432.77 159.167 1428.05 162.384 1424.64 164.852C1426.39 169.047 1428.24 174.634 1429.82 179.001L1417.63 170.218C1413.3 173.071 1409.35 176.049 1405.21 179.146L1410.31 164.576C1406.71 162.426 1402.35 159.088 1398.87 156.575L1412.61 156.503C1414.17 152.28 1415.64 147.76 1417.11 143.479Z" fill="white"/>
<path d="M1474.59 358.537C1476.1 360.648 1478.54 368.601 1479.52 371.483L1494.08 371.676C1490.23 373.902 1485.73 377.458 1482.09 380.179L1486.99 394.486C1483.1 391.384 1479.13 388.412 1475.05 385.574C1472.46 386.786 1465.42 392.176 1462.76 394.122L1467.28 380.062C1463.61 377.052 1459.37 374.264 1455.45 371.565L1469.74 371.502L1474.59 358.537Z" fill="white"/>
<path d="M1516.73 201.643C1518.35 202.817 1521.02 211.483 1521.9 213.972L1535.78 214.088C1531.94 216.822 1528.12 219.598 1524.34 222.414L1529.09 236.033C1525.26 233.891 1520.68 230.315 1517.06 227.651C1513.15 230.708 1509.35 233.156 1505.23 235.864C1506.38 231.721 1508.23 226.865 1509.67 222.743C1506 219.633 1502.3 216.986 1498.42 214.163L1512.14 214.02L1516.73 201.643Z" fill="white"/>
<path d="M86.0638 176.908C114.527 174.338 141.823 179.586 140.211 215.119C139.703 226.309 136.217 233.774 127.891 241.168C127.571 241.418 127.246 241.66 126.915 241.895C114.018 251.028 94.889 249.781 80.0368 247.205C79.9279 225.364 79.3708 200.85 80.3779 178.858C80.4304 177.71 84.8243 177.176 86.0638 176.908ZM119.375 231.111C128.116 220.681 130.195 203.482 118.779 193.859C111.122 187.404 102.509 187.869 93.0956 188.138C93.0547 197.522 92.3573 227.921 93.5465 235.612C99.4432 240.724 113.966 235.492 119.375 231.111Z" fill="white"/>
<path d="M835.446 193.542C886.954 187.875 879.423 255.514 842.439 248.808C840.937 248.392 839.368 248.029 837.848 247.656L836.545 248.776C834.984 253.066 835.924 261.881 835.991 267.17L822.934 267.171C822.584 243.832 822.89 219.645 822.878 196.24C826.32 195.146 831.755 194.256 835.446 193.542ZM836.264 235.981C843.722 238.401 847.442 239.853 854.454 234.997C863.556 217.912 857.666 201.877 836.025 204.847C836.005 213.512 835.54 227.745 836.264 235.981Z" fill="white"/>
<path d="M792.698 311.024C795.972 310.417 801.268 310.263 804.803 310.338C830.464 310.882 838.391 344.829 821.791 360.951C816.285 366.299 809.072 366.808 801.482 366.379C799.291 365.463 798.564 365.13 796.231 364.775C792.971 368.297 794.603 377.905 794.629 384.038L781.549 384.045C780.978 361.299 781.461 336.275 781.445 313.355C785.048 312.514 789.041 311.779 792.698 311.024ZM811.947 353.023C815.656 348.914 817.671 342.226 817.35 336.824C817.063 332.235 814.914 327.962 811.399 324.998C806.497 320.817 802.189 321.228 796.175 321.628C794.226 323.629 789.534 356.267 803.733 355.696C806.67 355.604 809.519 354.677 811.947 353.023Z" fill="white"/>
<path d="M167.804 193.485C173.687 192.967 180.322 192.313 185.574 195.239C208.376 207.945 206.016 240.51 181.073 249.095C175.635 249.923 170.588 249.957 165.375 247.964C145.614 240.403 143.267 210.236 159.397 197.802C161.856 195.906 164.974 194.708 167.804 193.485ZM175.367 239.108C192.297 232.67 192.227 207.421 174.537 203.778C157.366 208.066 157.31 234.707 175.367 239.108Z" fill="white"/>
<path d="M509.481 193.428C514.686 192.96 521.095 192.398 525.795 194.82C549.193 206.882 547.568 239.26 523.122 248.922C488.347 256.222 475.726 206.45 509.481 193.428ZM516.76 239.077C522.234 236.745 525.008 235.246 527.149 229.432C531.093 218.724 528.398 205.91 515.758 203.878C498.63 207.696 497.96 234.581 516.76 239.077Z" fill="white"/>
<path d="M742.446 310.048C767.321 309.437 777.528 333.419 767.134 354.405C763.392 361.96 756.502 364.882 748.701 366.976C712.761 368.818 707.606 316.92 742.446 310.048ZM747.829 355.905C763.016 346.469 761.394 321.04 742.088 321.442C727.132 329.375 728.177 354.468 747.829 355.905Z" fill="white"/>
<path d="M500.655 310.186C501.695 310.062 502.741 309.997 503.789 309.991C524.931 309.907 528.131 325.183 528.094 342.635C516.275 342.464 504.455 342.469 492.636 342.652C492.779 343.103 492.925 343.553 493.073 344.002C497.953 358.685 510.731 356.909 523.01 352.776L524.947 363.407C519.666 367.365 516.877 369.587 513.754 375.397C520.167 378.725 519.644 372.552 524.646 379.825C524.861 382.899 525.197 381.81 523.424 384.262C512.001 390.637 493.833 383.334 507.902 367.56C506.577 365.83 493.331 365.33 490.081 362.495C471.716 346.475 476.911 316.997 500.655 310.186ZM508.649 333.443C512.277 333.32 512.547 333.942 514.846 331.883C515.798 323.28 507.488 321.281 500.655 321.531C497.221 323.833 491.527 327.915 494.285 332.106C498.833 334.26 503.504 333.556 508.649 333.443Z" fill="white"/>
<path d="M1038.3 310.231C1038.51 310.203 1038.73 310.179 1038.94 310.158C1049.2 309.145 1054.44 310.864 1062.1 317.103C1067.41 329.47 1065.72 349.777 1065.6 363.698C1062.92 366.072 1054.5 372.309 1056.85 376.087C1059.95 376.675 1061.26 376.613 1064.33 376.526L1065.93 385.224C1054.3 387.517 1037.39 385.89 1047.36 369.769L1049.58 367.759C1047.4 363.271 1026.19 374.113 1021 348.862L1023.58 340.33C1035.73 327.849 1049.26 336.185 1052.8 329.845C1050.36 316.855 1038.05 322.799 1028.78 321.901C1026.89 319.472 1027.19 315.867 1026.89 312.391L1038.3 310.231ZM1044.43 356.573C1046.82 356.418 1050.64 356.8 1052.12 354.683C1055.32 350.085 1054.37 345.966 1050.37 342.192C1047.91 341.09 1045.49 341.41 1042.81 341.515C1030.67 345.192 1032.21 354.657 1044.43 356.573Z" fill="white"/>
<path d="M608.857 194.356L622.49 194.378L619.726 204.393C618.762 211.407 607.811 241.473 604.69 248.11L594 248.134C590.997 240.143 585.471 223.405 584.192 215.404C580.527 226.636 577.797 236.722 573.688 248.085L562.818 248.121C555.412 229.163 550.852 213.966 545.188 194.449L559.065 194.375C561.695 206.842 565.4 219.612 568.679 231.981C572.023 224.528 577.179 203.098 579.375 194.351L589.567 194.357C590.846 203.722 595.785 222.385 599.043 231.539C601.462 225.492 608.101 200.765 608.857 194.356Z" fill="white"/>
<path d="M328.385 294.383L342.076 294.362C342.226 304.373 339.275 346.394 346.617 351.151C378.7 371.941 371.021 310.623 370.939 294.374L383.988 294.366L384.021 304.509C383.846 318.682 387.904 348.819 377.653 358.922C363.508 372.863 331.454 369.591 329.109 345.699C327.442 328.705 328.259 311.545 328.385 294.383Z" fill="white"/>
<path d="M567.949 294.379L613.962 294.368L613.972 305.582L581.042 305.63L581.084 322.32L610.113 322.347L610.123 333.526C604.073 333.603 585.001 331.974 581.291 334.914L581.03 338.756L581.054 353.944L616.088 353.892L616.112 365.616L567.973 365.641L567.949 294.379Z" fill="white"/>
<path d="M987.379 193.437C1012.37 190.801 1016.97 203.809 1017.01 225.548C1009.27 225.567 988.624 224.638 982.477 226.047C981.702 229.679 985.446 234.24 988.362 235.998C995.362 240.209 1003.19 238.052 1010.56 236.342L1011.88 236.382C1013 238.611 1013.52 243.767 1013.91 246.479C1004.55 249.629 994.439 251.108 985.054 247.655C964.516 240.099 962.584 210.944 978.751 197.937C981.006 196.119 984.723 194.605 987.379 193.437ZM997.06 215.394C1000.79 215.318 1000.94 215.935 1003.48 213.908C1004.65 206.627 996.999 203.555 990.783 203.634C987.849 205.529 983.06 208.935 982.564 212.596C985.463 216.737 992.263 215.469 997.06 215.394Z" fill="white"/>
<path d="M756.142 193.501C781.22 190.715 785.885 203.706 786.151 225.542L750.498 225.544C754.677 240.047 764.632 239.458 777.257 236.964L779.997 236.244C782.034 237.769 782.574 243.513 783.077 246.274C734.899 263.992 722.019 207.865 756.142 193.501ZM767.222 215.395C770.61 215.288 770.779 215.87 772.908 213.938C773.301 206.776 765.581 203.175 759.118 203.771C755.634 206.665 752.489 208.573 752.009 213.003C754.879 215.819 756.233 215.584 760.313 215.547C762.617 215.518 764.92 215.466 767.222 215.395Z" fill="white"/>
<path d="M860.547 310.05C883.309 309.279 886.574 323.756 886.504 342.622C880.898 342.533 853.789 341.053 851.813 344.086C854.92 358.811 871.007 356.139 881.69 352.905L883.562 363.713C881.864 364.21 880.158 364.679 878.442 365.119C831.026 377.182 824.595 318.213 860.547 310.05ZM868.213 333.445C871.791 333.344 871.678 333.948 873.95 331.878C874.681 323.219 865.472 321.258 858.65 321.545C854.371 325.624 852.926 327.67 851.219 333.43L868.213 333.445Z" fill="white"/>
<path d="M345.856 193.468C357.699 192.57 361.123 192.068 371.618 198.079C379.029 210.993 376.732 231.259 376.631 246.86C364.571 249.42 352.45 251.292 340.794 246.618C333.678 242.807 330.78 234.472 333.33 226.757C339.111 209.269 353.818 219.122 363.535 214.584L364.08 212.971C360.976 199.719 348.529 203.777 339.001 205.961C338.514 203.002 337.503 198.962 338.376 196.238C340.033 194.104 343.092 193.972 345.856 193.468ZM360.645 239.007L363.216 238.31C364.587 235.192 363.998 228.468 363.966 224.728C360.052 224.701 354.525 224.5 350.75 224.751C347.796 226.87 346.812 227.424 345.44 230.848C345.609 239.187 354.289 239.091 360.645 239.007Z" fill="white"/>
<path d="M982.279 285.958L982.758 286.056C984.273 288.126 983.655 325.736 983.655 331.582C989.836 325.127 996 318.146 1002.02 311.508L1017.47 311.502C1010.85 319.399 1002.45 328.025 995.356 335.656C1003.45 343.274 1010.5 351.93 1016.34 361.399C1017.17 362.727 1017.17 363.134 1017.37 364.651C1014.96 366.545 1007.34 365.721 1003.94 365.634C996.714 355.004 992.909 350.06 983.646 341.216L983.62 365.624L970.544 365.625L970.5 287.72C974.418 287.095 978.344 286.507 982.279 285.958Z" fill="white"/>
<path d="M638.934 193.482C677.871 189.679 669.213 217.769 669.121 247.065C656.25 249.487 644.916 251.431 632.624 246.068C629.402 243.69 628.304 241.727 626.063 238.419C624.966 214.762 636.731 214.228 657.075 215.634L656.283 211.567C653.946 199.828 640.072 204.145 632.142 205.951C631.889 202.606 630.725 199.347 631.75 196.195C634.313 193.933 635.317 194.285 638.934 193.482ZM652.962 239.058C659.745 237.496 656.858 230.924 657.076 224.647L644.274 224.687C641.144 226.55 640.072 227.024 638.536 230.38C638.118 238.834 646.598 239.073 652.962 239.058Z" fill="white"/>
<path d="M624.365 311.516L637.483 311.505C637.678 323.041 631.919 355.974 649.531 355.402C651.726 355.332 654.224 355.213 656.421 355.07L656.438 311.5L669.523 311.508L669.535 322.575L669.542 363.63C619.469 375.69 624.054 351.215 624.365 311.516Z" fill="white"/>
<path d="M408.918 311.035C450.054 304.083 443.376 336.525 443.085 365.627L430.045 365.644C429.932 355.627 430.996 335.542 428.72 326.793C422.89 319.561 419.058 321.151 410.648 322.275L410.582 365.615L397.958 365.644L397.93 313.168L408.918 311.035Z" fill="white"/>
<path d="M402.175 193.574C414.967 192.336 420.026 192.423 430.154 199.932C436.547 214.111 434.65 232.274 434.506 248.11L421.439 248.117C421.386 236.057 422.703 218.496 419.248 207.678C413.743 202.966 408.749 204.28 402.13 204.892L402.123 248.115L389.42 248.116C389.142 230.974 389.36 213.213 389.338 196.021C393.165 195.027 398.194 194.278 402.175 193.574Z" fill="white"/>
<path d="M694.918 193.549C735.538 190.307 727.258 217.018 727.018 248.117H714.561C714.558 238.387 715.643 215.838 712.653 208.202C709 204.572 702.612 203.027 697.718 204.643C697.282 205.104 696.751 205.664 696.125 206.325C694.798 216.339 695.528 239.147 695.58 248.112L682.513 248.117L682.469 196.053C685.969 195.094 691.227 194.251 694.918 193.549Z" fill="white"/>
<path d="M290.885 193.539C302.378 192.176 308.674 192.692 318.355 198.791C326.157 212.548 323.801 231.822 323.63 248.109L310.551 248.117C310.232 237.957 311.777 217.323 308.943 208.658C304.1 202.508 297.832 204.272 290.998 205.068L290.987 248.115L278.527 248.117L278.477 196.056C282.26 195.118 286.992 194.312 290.885 193.539Z" fill="white"/>
<path d="M229.068 168.36C234.76 168.178 238.506 168.692 243.922 170.266C243.177 173.074 242.734 177.299 242.336 180.303C232.567 179.94 220.534 178.804 224.042 193.865C227.316 195.008 238.552 194.436 242.616 194.357L242.637 205.122L223.644 205.296L223.632 226.803L223.624 248.114L210.554 248.117C210.44 229.794 208.09 191.249 214.153 175.844C219.791 170.87 221.707 169.76 229.068 168.36Z" fill="white"/>
<path d="M921.02 194.375C930.762 194.308 952.432 193.651 961.181 194.622C962.435 196.874 962.043 201.131 962.017 203.889C954.068 211.67 941.567 228.191 935.437 237.53L962.557 237.517L962.626 247.011C961.59 248.693 923.745 248.854 920.402 247.281C916.658 237.253 938.667 213.084 945.258 205.2L921.046 205.13L921.02 194.375Z" fill="white"/>
<path d="M1023.95 194.364C1036.35 194.337 1050.31 193.923 1062.69 194.545C1064.35 194.628 1064.26 195.066 1065.28 196.498C1065.61 204.954 1044.8 228.725 1038.19 237.456L1065.58 237.514L1065.59 248.131C1059.22 248.021 1025.48 249.698 1023.24 246.405C1022.86 233.32 1039.66 215.798 1048.24 205.139L1023.96 205.129L1023.95 194.364Z" fill="white"/>
<path d="M938.946 310.098C945.371 309.535 952.04 311.067 958.282 312.456L956.367 322.144C952.806 323.794 943.63 318.9 937.04 322.109C935.124 324.466 935.603 323.424 935.211 326.472C938.52 335.177 975.808 338.977 956.872 361.033C953.111 365.42 946.738 366.415 941.341 366.56C932.051 366.864 929.483 366.349 920.934 363.493L923.354 352.662C930.171 355.216 942.707 359.432 947.931 352.053L947.435 350.132C940.966 342.443 924.799 340.754 922.344 329.055C919.924 317.485 929.021 312.113 938.946 310.098Z" fill="white"/>
<path d="M457.052 193.541C467.031 192.482 471.263 192.856 480.806 195.52C480.236 198.111 479.693 200.586 478.999 203.152C473.376 207.816 465.423 201.213 459.38 204.522C457.547 207.477 457.995 206.208 457.823 209.876C460.411 216.156 471.477 216.37 476.164 220.233C492.664 233.833 481.053 247.13 464.447 249.628C455.168 249.896 451.835 249.035 443.266 246.312L445.62 235.561C452.414 237.991 464.275 241.12 470.655 236.131C471.721 230.149 456.2 224.816 451.94 221.42C437.825 210.169 443.078 199.953 457.052 193.541Z" fill="white"/>
<path d="M898.455 311.512L911.54 311.506C911.453 325.899 911.949 340.379 911.793 354.774C911.627 369.841 911.836 379.701 895.634 384.413C891.534 384.869 887.938 384.064 883.898 383.371C885.257 367.688 887.799 375.735 894.851 372.391C899.395 367.699 898.681 358.866 898.629 352.728C898.507 338.986 898.481 325.253 898.455 311.512Z" fill="white"/>
<path d="M693.725 311.054C699.845 310.279 709.498 308.5 714.06 312.772C715.873 315.588 714.779 319.917 714.306 323.399C711.093 322.391 707.782 321.736 704.428 321.446C701.367 321.194 699.862 321.797 697.566 323.763C694.275 328.982 696.108 348.658 696.095 356.312L696.035 365.611L683.049 365.64C682.476 349.37 682.917 330.527 682.9 314.057L693.725 311.054Z" fill="white"/>
<path d="M895.035 193.469C903.489 192.754 907.555 193.171 915.59 194.958C913.074 208.232 914.485 205.353 901.765 204.379C899.023 204.17 897.647 204.336 895.514 205.952C894.304 212.422 894.992 232.496 895.035 240.516L895.027 248.115L881.967 248.118L881.941 196.886C885.99 195.632 890.865 194.525 895.035 193.469Z" fill="white"/>
<path d="M455.395 311.518L468.495 311.505L468.483 365.636L455.414 365.623L455.395 311.518Z" fill="white"/>
<path d="M251.962 194.368L264.599 194.343L264.614 248.115L251.978 248.117C251.862 230.2 251.857 212.284 251.962 194.368Z" fill="white"/>
<path d="M459.834 288.666C463.904 287.435 468.227 289.601 469.676 293.599C471.125 297.598 469.194 302.031 465.28 303.693C462.554 304.851 459.411 304.408 457.11 302.542C454.81 300.676 453.728 297.692 454.299 294.785C454.869 291.878 456.999 289.524 459.834 288.666Z" fill="white"/>
<path d="M258.075 171.038C262.341 170.97 265.905 174.269 266.167 178.527C266.429 182.786 263.297 186.496 259.055 186.953C256.134 187.266 253.277 185.95 251.618 183.526C249.958 181.101 249.765 177.962 251.114 175.352C252.464 172.742 255.138 171.085 258.075 171.038Z" fill="white"/>
<path d="M902.712 288.611C906.83 287.457 911.131 289.771 912.437 293.848C913.743 297.925 911.583 302.305 907.561 303.759C904.819 304.749 901.763 304.163 899.578 302.231C897.401 300.299 896.452 297.331 897.105 294.491C897.758 291.652 899.909 289.396 902.712 288.611Z" fill="white"/>
</svg>
