<svg width="2246" height="822" viewBox="0 0 2246 822" fill="none" xmlns="http://www.w3.org/2000/svg">
<mask id="mask0_471_8" style="mask-type:luminance" maskUnits="userSpaceOnUse" x="48" y="0" width="2198" height="822">
<path d="M1536.86 -1.05049e-05H1426.19H1403.26H570.051C432.056 -1.05049e-05 319.787 116.261 319.787 259.176C319.787 402.079 432.056 518.353 570.051 518.353H977.798H1212.98H1352.64C1375.82 518.353 1394.68 537.883 1394.68 562.115C1394.68 584.543 1378.21 603.059 1357.14 605.404C1355.65 605.562 1354.16 605.654 1352.64 605.654H1274.8H1013.98H611.508H549.054H418.037C329.346 605.654 257.192 530.93 257.192 439.072V302.715H48.9863V439.072C48.9863 648.455 212.413 819.026 414.114 821.239C415.417 821.252 416.734 821.279 418.037 821.279H549.054H611.508H1318.49H1352.64C1359.53 821.279 1366.33 820.91 1373.06 820.343H1970.15C2114.91 820.343 2232.7 710.588 2232.7 575.693C2232.7 420.069 2119.81 302.715 1970.15 302.715H1625.65L1729.97 518.353H1978.3C2000.06 518.353 2018.04 535.881 2019.35 558.362L2019.45 560.258C2019.52 561.101 2019.53 561.957 2019.53 562.813C2019.53 586.321 2001.13 605.404 1978.42 605.404H1599.09C1601.43 591.22 1602.9 576.747 1602.9 561.904C1602.9 418.975 1490.63 302.715 1352.64 302.715H1222.76H981.147H570.051C546.856 302.715 527.993 283.184 527.993 259.176C527.993 235.155 546.856 215.625 570.051 215.625H1020.6H1299.14H1432.75H2141.88L2245.99 -1.05049e-05H1536.86Z" fill="white"/>
</mask>
<g mask="url(#mask0_471_8)">
<path d="M1536.86 0H1426.19H1403.26H570.051C432.056 0 319.787 116.261 319.787 259.176C319.787 402.079 432.056 518.353 570.051 518.353H977.798H1212.98H1352.64C1375.82 518.353 1394.68 537.883 1394.68 562.115C1394.68 584.543 1378.21 603.059 1357.14 605.404C1355.65 605.562 1354.16 605.654 1352.64 605.654H1274.8H1013.98H611.508H549.054H418.037C329.346 605.654 243.986 538.358 243.986 446.5L227.486 374.5L219.986 302.715H0.486328V442C0.486328 651.382 212.413 819.026 414.114 821.239C415.417 821.252 416.734 821.279 418.037 821.279H549.054H611.508H1318.49H1352.64C1359.53 821.279 1366.33 820.91 1373.06 820.343H1970.15C2114.91 820.343 2232.7 710.588 2232.7 575.693C2232.7 420.069 2119.81 302.715 1970.15 302.715H1814L1796.5 388.5L1747.49 518.353H1978.3C2000.06 518.353 2018.04 535.881 2019.35 558.362L2019.45 560.258C2019.52 561.101 2019.53 561.957 2019.53 562.813C2019.53 586.321 2001.13 605.404 1978.42 605.404H1599.09C1601.43 591.22 1602.9 576.747 1602.9 561.904C1602.9 418.975 1490.63 302.715 1352.64 302.715H1222.76H981.147H570.051C546.856 302.715 527.993 283.184 527.993 259.176C527.993 235.155 546.856 215.625 570.051 215.625H1020.6H1299.14H1432.75H2141.88L2245.99 0H1536.86Z" fill="#E8E6E0"/>
</g>
</svg>
