<svg width="167" height="23" viewBox="0 0 167 23" fill="none" xmlns="http://www.w3.org/2000/svg">
<g clip-path="url(#clip0_7536_38)">
<path d="M58.1611 8.5H47.7111L49.1311 14.17H58.1611C58.9411 14.17 59.5811 14.81 59.5811 15.59C59.5811 16.37 58.9511 17.01 58.1611 17.01H17.3711V22.68H58.1611C62.0711 22.68 65.2511 19.51 65.2511 15.59C65.2511 11.67 62.0811 8.5 58.1611 8.5Z" fill="white"/>
<path d="M63.2508 5.67H42.0508L44.0508 0H65.2508L63.2508 5.67Z" fill="white"/>
<path d="M5.68953 0H0.0195312V5.67H5.68953V0Z" fill="white"/>
<path d="M5.67 14.8V8.5H0V16.45C0 19.89 2.79 22.68 6.22 22.68H19.05V17.01H7.87C6.65 17.01 5.67 16.02 5.67 14.81" fill="white"/>
<path d="M39.21 22.68H13.59L15.59 17.01H39.22C40 17.01 40.64 16.37 40.64 15.59C40.64 14.81 40.01 14.17 39.22 14.17H15.59C11.68 14.17 8.5 11 8.5 7.08C8.5 3.16 11.68 0 15.59 0H44.08L42.08 5.67H15.59C14.81 5.67 14.17 6.3 14.17 7.09C14.17 7.88 14.81 8.51 15.59 8.51H39.21C43.12 8.51 46.3 11.68 46.3 15.6C46.3 19.52 43.13 22.69 39.21 22.69" fill="white"/>
<path d="M69.8181 11.46H68.0781V16.84H69.8181V11.46Z" fill="white"/>
<path d="M76.1209 14.66L72.9409 11.46H71.4609V16.84H73.0609V13.56L76.4109 16.84H77.7209V11.46H76.1209V14.66Z" fill="white"/>
<path d="M83.5016 15.43C83.1716 15.7 82.6816 15.83 82.0316 15.83H81.0916V12.47H82.0316C82.6816 12.47 83.1616 12.6 83.5016 12.87C83.8316 13.14 84.0016 13.57 84.0016 14.16C84.0016 14.75 83.8316 15.17 83.5016 15.43ZM84.9216 12.14C84.3516 11.69 83.4516 11.46 82.2316 11.46H79.3516V16.84H82.2316C83.4516 16.84 84.3416 16.61 84.9216 16.16C85.4916 15.71 85.7816 15.04 85.7816 14.16C85.7816 13.28 85.4916 12.6 84.9216 12.15" fill="white"/>
<path d="M91.7294 14.77C91.7294 15.18 91.6094 15.49 91.3594 15.69C91.1094 15.89 90.7694 15.99 90.3194 15.99C89.8294 15.99 89.4794 15.89 89.2594 15.69C89.0394 15.49 88.9294 15.18 88.9294 14.77V11.46H87.1094V14.83C87.1094 15.58 87.3794 16.13 87.9294 16.48C88.4794 16.83 89.2994 17.01 90.4094 17.01C90.9994 17.01 91.5094 16.93 91.9594 16.78C92.3994 16.62 92.7494 16.39 93.0094 16.07C93.2694 15.75 93.3894 15.34 93.3894 14.84V11.47H91.7294V14.78V14.77Z" fill="white"/>
<path d="M99.4195 14.1498C99.2295 14.0298 99.0195 13.9298 98.7695 13.8598C98.5195 13.7798 98.2495 13.7098 97.9595 13.6498C97.6895 13.5798 97.4495 13.5298 97.2395 13.4698C97.0295 13.4098 96.8595 13.3398 96.7295 13.2598C96.5995 13.1798 96.5495 13.0598 96.5495 12.8998C96.5495 12.7698 96.5995 12.6698 96.6995 12.5798C96.7995 12.4998 96.9395 12.4398 97.1195 12.3998C97.2995 12.3598 97.4995 12.3498 97.7095 12.3498C97.9495 12.3498 98.1895 12.3898 98.4095 12.4498C98.6295 12.5098 98.8495 12.5798 99.0495 12.6698C99.2495 12.7598 99.4395 12.8498 99.5995 12.9598V11.6998C99.3795 11.6198 99.1695 11.5498 98.9695 11.4998C98.7595 11.4498 98.5495 11.4098 98.3195 11.3798C98.0895 11.3498 97.8295 11.3398 97.5395 11.3398C97.0695 11.3398 96.6495 11.3898 96.2995 11.4798C95.9495 11.5698 95.6595 11.6998 95.4295 11.8598C95.1995 12.0198 95.0395 12.1998 94.9295 12.4098C94.8195 12.6098 94.7695 12.8298 94.7695 13.0498C94.7695 13.2898 94.8195 13.4998 94.9095 13.6598C94.9995 13.8298 95.1295 13.9698 95.2895 14.0798C95.4495 14.1998 95.6295 14.2898 95.8295 14.3698C96.0295 14.4498 96.2295 14.5098 96.4395 14.5498C96.7695 14.6398 97.0695 14.7098 97.3295 14.7798C97.5995 14.8498 97.8095 14.9198 97.9695 15.0098C98.1295 15.0998 98.2095 15.2198 98.2095 15.3598C98.2095 15.5498 98.1195 15.6998 97.9495 15.7898C97.7795 15.8798 97.5195 15.9298 97.1895 15.9298C96.8195 15.9298 96.4195 15.8798 96.0095 15.7798C95.5895 15.6798 95.2195 15.5298 94.8895 15.3298V16.5698C95.1295 16.6598 95.3695 16.7298 95.6195 16.7798C95.8695 16.8298 96.1395 16.8698 96.4395 16.8998C96.7295 16.9298 97.0595 16.9398 97.4295 16.9398C97.9795 16.9398 98.4495 16.8598 98.8295 16.7098C99.2095 16.5598 99.4995 16.3498 99.6995 16.0798C99.8995 15.8098 99.9995 15.5198 99.9995 15.1998C99.9995 14.9598 99.9495 14.7498 99.8495 14.5798C99.7495 14.4098 99.6095 14.2598 99.4195 14.1398" fill="white"/>
<path d="M100.82 12.47H102.84V16.84H104.58V12.47H106.62V11.46H100.82V12.47Z" fill="white"/>
<path d="M111.68 13.84C111.5 13.96 111.26 14.03 110.95 14.03H109.49V12.47H111.03C111.32 12.47 111.55 12.54 111.71 12.66C111.87 12.78 111.95 12.98 111.95 13.22C111.95 13.51 111.86 13.71 111.68 13.83M113.07 14.46C113.32 14.3 113.51 14.1 113.64 13.87C113.77 13.64 113.83 13.41 113.83 13.17C113.83 12.59 113.6 12.17 113.14 11.88C112.68 11.6 112.05 11.46 111.24 11.46H107.75V16.84H109.49V14.98H110.57L111.99 16.84H114.21L112.38 14.73C112.65 14.67 112.89 14.58 113.08 14.45" fill="white"/>
<path d="M117.22 11.46H115.48V16.84H117.22V11.46Z" fill="white"/>
<path d="M120.82 14.72L121.72 12.69L122.64 14.72H120.82ZM120.94 11.46L118.23 16.84H119.88L120.4 15.68H123.08L123.6 16.84H125.39L122.85 11.46H120.95H120.94Z" fill="white"/>
<path d="M128.141 11.46H126.391V16.84H131.251V15.81H128.141V11.46Z" fill="white"/>
<path d="M139.939 14.1498C139.749 14.0298 139.539 13.9298 139.289 13.8598C139.039 13.7798 138.769 13.7098 138.479 13.6498C138.209 13.5798 137.969 13.5298 137.759 13.4698C137.549 13.4098 137.379 13.3398 137.249 13.2598C137.119 13.1798 137.069 13.0598 137.069 12.8998C137.069 12.7698 137.119 12.6698 137.219 12.5798C137.319 12.4998 137.459 12.4398 137.639 12.3998C137.819 12.3598 138.019 12.3498 138.229 12.3498C138.469 12.3498 138.709 12.3898 138.929 12.4498C139.149 12.5098 139.369 12.5798 139.569 12.6698C139.769 12.7598 139.959 12.8498 140.119 12.9598V11.6998C139.899 11.6198 139.689 11.5498 139.489 11.4998C139.279 11.4498 139.069 11.4098 138.839 11.3798C138.609 11.3498 138.349 11.3398 138.059 11.3398C137.589 11.3398 137.169 11.3898 136.819 11.4798C136.469 11.5698 136.179 11.6998 135.949 11.8598C135.719 12.0198 135.559 12.1998 135.449 12.4098C135.339 12.6098 135.289 12.8298 135.289 13.0498C135.289 13.2898 135.339 13.4998 135.429 13.6598C135.519 13.8298 135.649 13.9698 135.809 14.0798C135.969 14.1998 136.149 14.2898 136.349 14.3698C136.549 14.4498 136.749 14.5098 136.959 14.5498C137.289 14.6398 137.589 14.7098 137.849 14.7798C138.119 14.8498 138.329 14.9198 138.489 15.0098C138.649 15.0998 138.729 15.2198 138.729 15.3598C138.729 15.5498 138.639 15.6998 138.469 15.7898C138.299 15.8798 138.039 15.9298 137.709 15.9298C137.339 15.9298 136.939 15.8798 136.529 15.7798C136.119 15.6798 135.739 15.5298 135.409 15.3298V16.5698C135.649 16.6598 135.889 16.7298 136.139 16.7798C136.389 16.8298 136.659 16.8698 136.959 16.8998C137.249 16.9298 137.579 16.9398 137.949 16.9398C138.499 16.9398 138.969 16.8598 139.349 16.7098C139.729 16.5598 140.019 16.3498 140.219 16.0798C140.419 15.8098 140.519 15.5198 140.519 15.1998C140.519 14.9598 140.469 14.7498 140.369 14.5798C140.269 14.4098 140.129 14.2598 139.939 14.1398" fill="white"/>
<path d="M141.352 12.47H143.362V16.84H145.102V12.47H147.152V11.46H141.352V12.47Z" fill="white"/>
<path d="M148.27 16.84H153.19V15.83H150.02V14.65H152.77V13.64H150.02V12.47H153.19V11.46H148.27V16.84Z" fill="white"/>
<path d="M154.762 16.84H159.672V15.83H156.502V14.65H159.252V13.64H156.502V12.47H159.672V11.46H154.762V16.84Z" fill="white"/>
<path d="M162.978 15.81V11.46H161.238V16.84H166.098V15.81H162.978Z" fill="white"/>
<path d="M70.3916 21.2399H71.1816V21.8699C71.0916 21.8999 70.9916 21.9299 70.8816 21.9399C70.7716 21.9499 70.6516 21.9599 70.5216 21.9599C70.2716 21.9599 70.0516 21.9199 69.8716 21.8499C69.6816 21.7699 69.5416 21.6499 69.4416 21.4799C69.3416 21.3099 69.2916 21.0699 69.2916 20.7699C69.2916 20.4699 69.3416 20.2299 69.4416 20.0599C69.5416 19.8899 69.6916 19.7599 69.8816 19.6899C70.0716 19.6199 70.3116 19.5799 70.5816 19.5799C70.8516 19.5799 71.1016 19.6099 71.3416 19.6799C71.5916 19.7499 71.8516 19.8399 72.1416 19.9499V19.1599C71.8816 19.0799 71.6016 19.0099 71.3216 18.9699C71.0316 18.9199 70.7416 18.8999 70.4416 18.8999C69.9716 18.8999 69.5616 18.9699 69.2116 19.0999C68.8616 19.2299 68.5916 19.4299 68.3916 19.7099C68.2016 19.9899 68.1016 20.3399 68.1016 20.7799C68.1016 21.2199 68.2016 21.5799 68.3916 21.8599C68.5816 22.1299 68.8616 22.3299 69.2116 22.4599C69.5616 22.5799 69.9716 22.6499 70.4416 22.6499C70.7716 22.6499 71.1016 22.6199 71.4316 22.5499C71.7516 22.4799 72.0616 22.3899 72.3616 22.2599V20.5699H70.4116V21.2499L70.3916 21.2399Z" fill="white"/>
<path d="M76.0519 20.5602C75.9319 20.6402 75.7719 20.6802 75.5619 20.6802H74.5919V19.6402H75.6119C75.8119 19.6402 75.9619 19.6802 76.0719 19.7702C76.1819 19.8602 76.2319 19.9802 76.2319 20.1502C76.2319 20.3402 76.1719 20.4802 76.0519 20.5602ZM76.9719 20.9802C77.1419 20.8702 77.2619 20.7402 77.3519 20.5902C77.4419 20.4402 77.4819 20.2802 77.4819 20.1302C77.4819 19.7502 77.3319 19.4602 77.0219 19.2702C76.7119 19.0802 76.2919 18.9902 75.7519 18.9902H73.4219V22.5802H74.5819V21.3402H75.3019L76.2519 22.5802H77.7319L76.5119 21.1802C76.6919 21.1402 76.8519 21.0802 76.9819 21.0002" fill="white"/>
<path d="M81.5102 21.4402C81.4202 21.6102 81.2902 21.7302 81.1202 21.8102C80.9502 21.8902 80.7402 21.9202 80.5002 21.9202C80.2602 21.9202 80.0501 21.8802 79.8801 21.8102C79.7101 21.7402 79.5902 21.6202 79.5002 21.4502C79.4102 21.2802 79.3702 21.0602 79.3702 20.7702C79.3702 20.4802 79.4102 20.2602 79.5002 20.0902C79.5902 19.9202 79.7201 19.8002 79.8801 19.7202C80.0501 19.6402 80.2502 19.6102 80.5002 19.6102C80.7502 19.6102 80.9502 19.6502 81.1202 19.7202C81.2902 19.7902 81.4202 19.9102 81.5102 20.0802C81.6002 20.2502 81.6402 20.4702 81.6402 20.7602C81.6402 21.0502 81.6002 21.2602 81.5102 21.4302M81.7402 19.1102C81.3902 18.9802 80.9802 18.9102 80.5002 18.9102C79.7702 18.9102 79.1902 19.0702 78.7802 19.3802C78.3702 19.7002 78.1602 20.1602 78.1602 20.7702C78.1602 21.1902 78.2601 21.5402 78.4501 21.8202C78.6401 22.1002 78.9102 22.3002 79.2602 22.4402C79.6102 22.5702 80.0202 22.6402 80.4902 22.6402C81.2302 22.6402 81.8102 22.4802 82.2102 22.1702C82.6202 21.8502 82.8202 21.3902 82.8202 20.7702C82.8202 20.3402 82.7202 19.9902 82.5302 19.7202C82.3402 19.4502 82.0702 19.2402 81.7202 19.1102" fill="white"/>
<path d="M86.8105 21.1902C86.8105 21.4702 86.7305 21.6702 86.5605 21.8002C86.3905 21.9302 86.1605 22.0002 85.8705 22.0002C85.5405 22.0002 85.3105 21.9302 85.1605 21.8002C85.0105 21.6702 84.9405 21.4602 84.9405 21.1902V18.9802H83.7305V21.2302C83.7305 21.7302 83.9105 22.0902 84.2805 22.3302C84.6505 22.5602 85.2005 22.6802 85.9305 22.6802C86.3205 22.6802 86.6705 22.6302 86.9605 22.5202C87.2605 22.4202 87.4905 22.2602 87.6605 22.0402C87.8305 21.8302 87.9105 21.5502 87.9105 21.2202V18.9702H86.8105V21.1802V21.1902Z" fill="white"/>
<path d="M91.66 20.4C91.63 20.46 91.59 20.52 91.54 20.56C91.49 20.61 91.42 20.64 91.33 20.67C91.24 20.7 91.13 20.71 91.01 20.71H90.16V19.65H91.01C91.13 19.65 91.24 19.66 91.33 19.69C91.42 19.71 91.49 19.75 91.54 19.8C91.59 19.85 91.63 19.91 91.66 19.97C91.69 20.04 91.7 20.11 91.7 20.2C91.7 20.27 91.69 20.34 91.66 20.4ZM92.47 19.26C92.15 19.07 91.71 18.98 91.15 18.98H89V22.64H90.16V21.39H91.15C91.71 21.39 92.15 21.28 92.47 21.07C92.79 20.86 92.95 20.55 92.95 20.15C92.95 19.75 92.79 19.46 92.47 19.27" fill="white"/>
</g>
<defs>
<clipPath id="clip0_7536_38">
<rect width="166.1" height="22.68" fill="white"/>
</clipPath>
</defs>
</svg>
