<?xml version="1.0" encoding="UTF-8"?>
<svg id="Warstwa_1" data-name="Warstwa 1" xmlns="http://www.w3.org/2000/svg" viewBox="0 0 1417.32 499.25">
  <defs>
    <style>
      .cls-1 {
        fill: #fff;
      }

      .cls-2 {
        fill: none;
      }

      .cls-3 {
        fill: #1d1d1b;
      }
    </style>
  </defs>
  <g>
    <rect class="cls-1" x="918.1" y="18.93" width="3.05" height="91.46"/>
    <g>
      <path class="cls-1" d="M63.35,49.18c1.55-.3,3.61-1.35,5.72-2.67V0L8.27,19v45.61c3.06.83,6.46,1.22,8.71-.13,4.91-2.93,12.36-11.9,12.36-11.9,0,0-3.93,9.67-2.44,13.22,1.56,3.77,10.86,3.97,10.86,3.97,0,0-10.51,6.39-15.4,10.62-5.03,4.32-8.52,20.19-8.52,20.19,0,0-2.43-10.16-5.56-12.3v21.91l60.8,11.4v-52.75c-1.38.39-2.67.8-3.71,1.24-5.31,2.18-11.17,18.18-11.17,18.18,0,0-.32-13.32-2.7-17.15-2.24-3.57-13.73-1.34-13.73-1.34,0,0,10.4-6.67,13.64-12,3.07-5.06,1.85-13.26,1.85-13.26,0,0,5.23,5.61,10.11,4.67ZM53.23,44.51s-6.89-2.4-10.75-1.68c-3.8.72-13.14,9.74-13.14,9.74,0,0,5.87-9.21,5.52-12.48-.35-3.11-6.44-4.23-6.44-4.23,0,0,7.98-1.96,11.46-5.09,3.35-3.03,6.29-9.29,6.29-9.29,0,0,.74,5.19,3.72,5.93,3.08.78,11.31-2.55,11.31-2.55,0,0-6.5,6.15-9.04,9.5-2.66,3.5,1.08,10.15,1.08,10.15Z"/>
      <g>
        <path class="cls-1" d="M91.87,57v-18.28h11.55v2.82h-8.23v4.67h7.31v2.82h-7.31v7.97h-3.32Z"/>
        <path class="cls-1" d="M116.8,56.58c-.62.16-1.42.32-2.4.49-.98.17-2.07.25-3.24.25-1.11,0-2.04-.16-2.78-.47-.75-.32-1.35-.76-1.79-1.32-.45-.56-.77-1.24-.96-2.02-.19-.78-.29-1.64-.29-2.57v-7.73h3.19v7.23c0,1.48.22,2.53.65,3.17s1.18.95,2.26.95c.39,0,.8-.02,1.23-.05.43-.04.75-.08.96-.13v-11.16h3.19v13.37Z"/>
        <path class="cls-1" d="M120.41,43.65c.62-.18,1.42-.34,2.4-.5s2.08-.24,3.27-.24c1.13,0,2.07.15,2.82.46.76.31,1.36.74,1.81,1.29s.76,1.22.95,2c.18.78.28,1.64.28,2.57v7.76h-3.19v-7.25c0-.74-.05-1.37-.15-1.89-.1-.52-.26-.94-.47-1.27-.22-.33-.52-.56-.9-.71-.38-.15-.84-.22-1.38-.22-.4,0-.83.03-1.27.08-.44.05-.76.1-.98.13v11.13h-3.19v-13.35Z"/>
        <path class="cls-1" d="M147.16,56.58c-.63.19-1.43.37-2.39.53-.96.16-1.97.24-3.02.24s-2.07-.17-2.93-.5c-.86-.33-1.6-.81-2.2-1.44-.61-.62-1.07-1.38-1.4-2.27-.33-.89-.49-1.89-.49-2.99s.14-2.08.41-2.97c.27-.89.67-1.65,1.2-2.28.53-.63,1.17-1.12,1.93-1.46s1.63-.51,2.61-.51c.67,0,1.26.08,1.77.24.51.16.95.33,1.32.53v-6.62l3.19-.53v20.05ZM138,50.06c0,1.41.33,2.51,1,3.31.67.8,1.59,1.2,2.77,1.2.51,0,.95-.02,1.31-.07.36-.04.66-.09.88-.15v-7.91c-.28-.19-.66-.37-1.12-.54-.47-.17-.96-.25-1.49-.25-1.16,0-2.01.4-2.55,1.19-.54.79-.8,1.86-.8,3.22Z"/>
        <path class="cls-1" d="M162.12,56.58c-.62.16-1.42.32-2.4.49-.98.17-2.07.25-3.24.25-1.11,0-2.04-.16-2.78-.47-.75-.32-1.35-.76-1.79-1.32-.45-.56-.77-1.24-.96-2.02-.19-.78-.29-1.64-.29-2.57v-7.73h3.19v7.23c0,1.48.22,2.53.65,3.17s1.18.95,2.26.95c.39,0,.8-.02,1.23-.05.43-.04.75-.08.96-.13v-11.16h3.19v13.37Z"/>
        <path class="cls-1" d="M169.37,54.71c.84,0,1.46-.1,1.85-.3.39-.2.58-.55.58-1.04,0-.46-.21-.83-.62-1.13-.41-.3-1.09-.62-2.04-.98-.58-.21-1.11-.44-1.6-.67-.48-.24-.9-.51-1.25-.83-.35-.32-.63-.7-.83-1.15-.2-.45-.3-1-.3-1.65,0-1.27.47-2.26,1.4-2.99.93-.73,2.2-1.09,3.8-1.09.81,0,1.58.07,2.32.22.74.15,1.29.29,1.66.44l-.58,2.59c-.35-.16-.8-.3-1.35-.44-.55-.13-1.18-.2-1.9-.2-.65,0-1.18.11-1.58.33-.4.22-.61.56-.61,1.02,0,.23.04.43.12.61s.22.34.41.49c.19.15.45.3.76.45.32.15.7.3,1.16.46.76.28,1.4.56,1.93.83.53.27.96.58,1.31.92.34.34.59.73.75,1.17.16.44.24.97.24,1.58,0,1.32-.49,2.32-1.46,2.99-.98.68-2.37,1.02-4.18,1.02-1.21,0-2.19-.1-2.93-.3-.74-.2-1.26-.36-1.56-.49l.55-2.66c.47.19,1.04.38,1.7.55.66.18,1.41.26,2.26.26Z"/>
        <path class="cls-1" d="M187.6,45.45c-.35.37-.81.89-1.38,1.56-.57.67-1.18,1.41-1.83,2.23s-1.31,1.67-1.97,2.56c-.66.89-1.25,1.74-1.78,2.55h7.12v2.66h-10.97v-1.98c.39-.7.87-1.47,1.45-2.29.58-.83,1.18-1.66,1.79-2.49.62-.84,1.23-1.63,1.83-2.39.61-.76,1.15-1.42,1.62-1.98h-6.36v-2.66h10.47v2.24Z"/>
        <path class="cls-1" d="M189.39,50.17c0-1.21.18-2.28.54-3.19.36-.91.84-1.68,1.44-2.28.6-.61,1.28-1.06,2.06-1.37.77-.31,1.57-.46,2.37-.46,1.9,0,3.38.59,4.44,1.77,1.06,1.18,1.6,2.94,1.6,5.28,0,.18,0,.37-.01.59,0,.22-.02.42-.04.59h-9.1c.09,1.11.48,1.97,1.17,2.57.69.61,1.7.91,3.02.91.77,0,1.48-.07,2.12-.21.64-.14,1.15-.29,1.52-.45l.42,2.61c-.18.09-.42.18-.73.28-.31.1-.66.18-1.06.26-.4.08-.82.15-1.28.2-.46.05-.92.08-1.4.08-1.21,0-2.27-.18-3.17-.54-.9-.36-1.64-.86-2.22-1.5-.58-.64-1.01-1.4-1.29-2.27-.28-.87-.42-1.82-.42-2.86ZM198.65,48.74c0-.44-.06-.86-.18-1.25-.12-.4-.3-.74-.54-1.03-.24-.29-.53-.52-.87-.69-.34-.17-.75-.25-1.23-.25s-.92.09-1.29.28c-.37.18-.68.43-.94.73s-.45.64-.59,1.03-.24.78-.29,1.19h5.94Z"/>
        <path class="cls-1" d="M213.48,57v-18.28h11.74v2.82h-8.41v4.51h7.49v2.77h-7.49v5.35h9.05v2.82h-12.37Z"/>
        <path class="cls-1" d="M239.62,56.58c-.62.16-1.42.32-2.4.49-.98.17-2.07.25-3.24.25-1.11,0-2.04-.16-2.78-.47-.75-.32-1.35-.76-1.79-1.32-.45-.56-.77-1.24-.96-2.02-.19-.78-.29-1.64-.29-2.57v-7.73h3.19v7.23c0,1.48.22,2.53.65,3.17s1.18.95,2.26.95c.39,0,.8-.02,1.23-.05.43-.04.75-.08.96-.13v-11.16h3.19v13.37Z"/>
        <path class="cls-1" d="M251.09,46.08c-.26-.09-.63-.18-1.09-.28-.47-.1-1.01-.15-1.62-.15-.35,0-.73.04-1.12.11-.4.07-.67.13-.83.18v11.05h-3.19v-13.14c.62-.23,1.38-.44,2.31-.65.92-.2,1.95-.3,3.07-.3.21,0,.46.01.74.04.28.03.56.06.84.11.28.04.55.1.82.16.26.06.47.12.63.17l-.55,2.69Z"/>
        <path class="cls-1" d="M265.92,50.09c0,1.09-.16,2.08-.47,2.98-.32.9-.76,1.66-1.35,2.29-.58.63-1.28,1.13-2.1,1.48-.82.35-1.72.53-2.7.53s-1.88-.18-2.69-.53c-.81-.35-1.5-.84-2.08-1.48-.58-.63-1.03-1.4-1.36-2.29-.33-.9-.49-1.89-.49-2.98s.16-2.08.49-2.97c.33-.89.78-1.65,1.37-2.28.59-.63,1.29-1.12,2.1-1.46.81-.34,1.7-.51,2.66-.51s1.86.17,2.68.51c.82.34,1.52.83,2.1,1.46.58.63,1.03,1.39,1.36,2.28.33.89.49,1.88.49,2.97ZM262.65,50.09c0-1.37-.29-2.46-.88-3.26-.59-.8-1.41-1.2-2.47-1.2s-1.88.4-2.47,1.2c-.59.8-.88,1.89-.88,3.26s.29,2.49.88,3.3c.59.81,1.41,1.21,2.47,1.21s1.88-.4,2.47-1.21c.59-.81.88-1.91.88-3.3Z"/>
        <path class="cls-1" d="M281.3,50.12c0,1.06-.14,2.02-.41,2.9-.27.88-.66,1.64-1.17,2.27-.51.63-1.15,1.13-1.91,1.48-.76.35-1.63.53-2.6.53-.65,0-1.25-.08-1.79-.24-.55-.16-.99-.33-1.35-.53v5.35h-3.19v-18.23c.65-.18,1.45-.34,2.4-.5s1.95-.24,3.01-.24,2.07.17,2.93.5c.86.33,1.6.81,2.2,1.44.61.62,1.07,1.38,1.4,2.27.33.89.49,1.89.49,2.99ZM278.03,50.17c0-1.42-.32-2.53-.96-3.32-.64-.79-1.68-1.19-3.1-1.19-.3,0-.61.01-.94.04-.33.03-.65.08-.96.17v7.89c.28.19.66.37,1.12.54.47.17.96.25,1.49.25,1.16,0,2.01-.4,2.55-1.19.54-.79.8-1.86.8-3.19Z"/>
        <path class="cls-1" d="M283.51,50.17c0-1.21.18-2.28.54-3.19.36-.91.84-1.68,1.44-2.28.6-.61,1.28-1.06,2.06-1.37.77-.31,1.57-.46,2.37-.46,1.9,0,3.38.59,4.44,1.77,1.06,1.18,1.6,2.94,1.6,5.28,0,.18,0,.37-.01.59,0,.22-.02.42-.04.59h-9.1c.09,1.11.48,1.97,1.17,2.57.69.61,1.7.91,3.02.91.77,0,1.48-.07,2.12-.21.64-.14,1.15-.29,1.52-.45l.42,2.61c-.18.09-.42.18-.73.28-.31.1-.66.18-1.06.26-.4.08-.82.15-1.28.2-.46.05-.92.08-1.4.08-1.21,0-2.27-.18-3.17-.54-.9-.36-1.64-.86-2.22-1.5-.58-.64-1.01-1.4-1.29-2.27-.28-.87-.42-1.82-.42-2.86ZM292.77,48.74c0-.44-.06-.86-.18-1.25-.12-.4-.3-.74-.54-1.03-.24-.29-.53-.52-.87-.69-.34-.17-.75-.25-1.23-.25s-.92.09-1.29.28c-.37.18-.68.43-.94.73s-.45.64-.59,1.03-.24.78-.29,1.19h5.94Z"/>
        <path class="cls-1" d="M297.28,61.91c-.23,0-.55-.02-.96-.07-.41-.04-.78-.13-1.09-.25l.42-2.61c.39.12.85.18,1.4.18.74,0,1.26-.22,1.56-.65.3-.43.45-1.08.45-1.94v-13.37h3.19v13.43c0,1.79-.43,3.12-1.28,3.98-.85.86-2.08,1.29-3.68,1.29ZM302.59,39.17c0,.6-.19,1.07-.58,1.42-.39.35-.84.53-1.37.53s-1.01-.18-1.4-.53c-.39-.35-.58-.83-.58-1.42s.19-1.1.58-1.45c.39-.35.85-.53,1.4-.53s.98.18,1.37.53c.39.35.58.84.58,1.45Z"/>
        <path class="cls-1" d="M309.47,54.71c.84,0,1.46-.1,1.85-.3.39-.2.58-.55.58-1.04,0-.46-.21-.83-.62-1.13-.41-.3-1.09-.62-2.04-.98-.58-.21-1.11-.44-1.6-.67-.48-.24-.9-.51-1.25-.83-.35-.32-.63-.7-.83-1.15-.2-.45-.3-1-.3-1.65,0-1.27.47-2.26,1.4-2.99.93-.73,2.2-1.09,3.8-1.09.81,0,1.58.07,2.32.22.74.15,1.29.29,1.66.44l-.58,2.59c-.35-.16-.8-.3-1.35-.44-.55-.13-1.18-.2-1.9-.2-.65,0-1.18.11-1.58.33-.4.22-.61.56-.61,1.02,0,.23.04.43.12.61s.22.34.41.49c.19.15.45.3.76.45.32.15.7.3,1.16.46.76.28,1.4.56,1.93.83.53.27.96.58,1.31.92.34.34.59.73.75,1.17.16.44.24.97.24,1.58,0,1.32-.49,2.32-1.46,2.99-.98.68-2.37,1.02-4.18,1.02-1.21,0-2.19-.1-2.93-.3-.74-.2-1.26-.36-1.56-.49l.55-2.66c.47.19,1.04.38,1.7.55.66.18,1.41.26,2.26.26Z"/>
        <path class="cls-1" d="M320.92,48.59c.4-.42.84-.87,1.29-1.36.46-.48.91-.97,1.35-1.45.44-.48.86-.95,1.25-1.4.4-.45.73-.84,1.02-1.17h3.77c-.88.98-1.8,2-2.78,3.06-.97,1.06-1.95,2.08-2.93,3.09.53.44,1.08.97,1.66,1.6s1.14,1.29,1.68,1.99c.54.7,1.05,1.41,1.53,2.11.47.7.87,1.35,1.18,1.95h-3.69c-.32-.55-.68-1.12-1.09-1.71-.41-.6-.86-1.18-1.33-1.74-.47-.56-.96-1.09-1.45-1.6-.49-.5-.98-.93-1.45-1.28v6.33h-3.19v-19.94l3.19-.53v12.06Z"/>
        <path class="cls-1" d="M335.61,39.17c0,.6-.19,1.07-.58,1.42-.39.35-.84.53-1.37.53s-1.01-.18-1.4-.53c-.39-.35-.58-.83-.58-1.42s.19-1.1.58-1.45c.39-.35.85-.53,1.4-.53s.98.18,1.37.53c.39.35.58.84.58,1.45ZM335.27,57h-3.19v-13.8h3.19v13.8Z"/>
        <path class="cls-1" d="M337.8,50.17c0-1.21.18-2.28.54-3.19.36-.91.84-1.68,1.44-2.28.6-.61,1.28-1.06,2.06-1.37.77-.31,1.57-.46,2.37-.46,1.9,0,3.38.59,4.44,1.77,1.06,1.18,1.6,2.94,1.6,5.28,0,.18,0,.37-.01.59,0,.22-.02.42-.04.59h-9.1c.09,1.11.48,1.97,1.17,2.57.69.61,1.7.91,3.02.91.77,0,1.48-.07,2.12-.21.64-.14,1.15-.29,1.52-.45l.42,2.61c-.18.09-.42.18-.73.28-.31.1-.66.18-1.06.26-.4.08-.82.15-1.28.2-.46.05-.92.08-1.4.08-1.21,0-2.27-.18-3.17-.54-.9-.36-1.64-.86-2.22-1.5-.58-.64-1.01-1.4-1.29-2.27-.28-.87-.42-1.82-.42-2.86ZM347.06,48.74c0-.44-.06-.86-.18-1.25-.12-.4-.3-.74-.54-1.03-.24-.29-.53-.52-.87-.69-.34-.17-.75-.25-1.23-.25s-.92.09-1.29.28c-.37.18-.68.43-.94.73s-.45.64-.59,1.03-.24.78-.29,1.19h5.94Z"/>
      </g>
      <g>
        <path class="cls-1" d="M104.29,86.97c-.63.19-1.43.37-2.39.53-.96.16-1.97.24-3.02.24s-2.07-.17-2.93-.5c-.86-.33-1.6-.81-2.2-1.44-.61-.62-1.07-1.38-1.4-2.27-.33-.89-.49-1.89-.49-2.99s.14-2.08.41-2.97c.27-.89.67-1.65,1.2-2.28.53-.63,1.17-1.12,1.92-1.46.76-.34,1.63-.51,2.61-.51.67,0,1.26.08,1.77.24.51.16.95.33,1.32.53v-6.62l3.19-.53v20.05ZM95.14,80.46c0,1.41.33,2.51,1,3.31.67.8,1.59,1.2,2.77,1.2.51,0,.94-.02,1.31-.07.36-.04.65-.09.88-.15v-7.91c-.28-.19-.66-.37-1.12-.54-.47-.17-.96-.25-1.49-.25-1.16,0-2.01.4-2.55,1.19-.54.79-.81,1.86-.81,3.22Z"/>
        <path class="cls-1" d="M112.33,87.66c-.95-.02-1.74-.12-2.36-.32-.63-.19-1.12-.47-1.49-.83-.37-.36-.63-.81-.78-1.34-.15-.54-.22-1.15-.22-1.83v-15.88l3.19-.53v15.8c0,.39.03.71.09.98.06.26.17.49.33.67s.37.33.65.42.62.17,1.04.22l-.45,2.64Z"/>
        <path class="cls-1" d="M119.64,73.26c1.05,0,1.94.13,2.66.4.72.26,1.3.63,1.73,1.11.43.47.74,1.05.92,1.73.18.68.28,1.42.28,2.23v8.36c-.49.11-1.24.23-2.23.38-.99.15-2.12.22-3.36.22-.83,0-1.58-.08-2.27-.24-.69-.16-1.27-.41-1.75-.77-.48-.35-.86-.81-1.13-1.37-.27-.56-.41-1.26-.41-2.08s.15-1.46.46-2c.31-.55.73-.99,1.25-1.33.53-.34,1.14-.59,1.83-.74.69-.15,1.42-.22,2.18-.22.35,0,.72.02,1.11.07.39.04.8.12,1.24.22v-.53c0-.37-.04-.72-.13-1.05s-.24-.63-.46-.88c-.22-.25-.51-.45-.87-.59-.36-.14-.81-.21-1.36-.21-.74,0-1.42.05-2.03.16-.62.11-1.12.23-1.5.37l-.4-2.58c.4-.14.99-.28,1.77-.42.77-.14,1.6-.21,2.48-.21ZM119.91,85.15c.98,0,1.73-.05,2.24-.16v-3.54c-.18-.05-.43-.1-.77-.16-.33-.05-.7-.08-1.11-.08-.35,0-.71.03-1.07.08-.36.05-.69.15-.98.29-.29.14-.52.34-.7.59-.18.26-.26.58-.26.96,0,.76.24,1.28.71,1.57.47.29,1.12.44,1.93.44Z"/>
        <path class="cls-1" d="M131.91,78.98l2.85-1.45v-8.42h3.32v6.73l3.16-1.61,1.06,2.19-4.22,2.16v5.93h8.23v2.88h-11.55v-7.12l-1.77.9-1.08-2.19Z"/>
        <path class="cls-1" d="M160.7,80.48c0,1.09-.16,2.08-.48,2.98-.32.9-.76,1.66-1.34,2.29-.58.63-1.28,1.13-2.1,1.48-.82.35-1.72.53-2.7.53s-1.88-.18-2.69-.53c-.81-.35-1.5-.84-2.09-1.48-.58-.63-1.03-1.4-1.36-2.29-.33-.9-.49-1.89-.49-2.98s.16-2.08.49-2.97c.33-.89.78-1.65,1.37-2.28.59-.63,1.29-1.12,2.1-1.46.81-.34,1.7-.51,2.66-.51s1.86.17,2.68.51c.82.34,1.52.83,2.1,1.46.58.63,1.03,1.39,1.36,2.28.32.89.49,1.88.49,2.97ZM157.43,80.48c0-1.37-.29-2.46-.88-3.26-.59-.8-1.41-1.2-2.47-1.2s-1.88.4-2.47,1.2c-.59.8-.88,1.89-.88,3.26s.29,2.49.88,3.3c.59.81,1.41,1.21,2.47,1.21s1.88-.4,2.47-1.21c.59-.81.88-1.91.88-3.3ZM157.51,67.95l-4.3,4.17-1.58-1.42,3.88-4.62,2.01,1.87Z"/>
        <path class="cls-1" d="M175.04,86.97c-.63.19-1.43.37-2.39.53-.96.16-1.97.24-3.02.24s-2.07-.17-2.93-.5c-.86-.33-1.6-.81-2.2-1.44-.61-.62-1.07-1.38-1.4-2.27-.33-.89-.49-1.89-.49-2.99s.14-2.08.41-2.97c.27-.89.67-1.65,1.2-2.28.53-.63,1.17-1.12,1.93-1.46.76-.34,1.63-.51,2.61-.51.67,0,1.26.08,1.77.24s.95.33,1.32.53v-6.62l3.19-.53v20.05ZM165.89,80.46c0,1.41.33,2.51,1,3.31.67.8,1.59,1.2,2.77,1.2.51,0,.95-.02,1.31-.07s.65-.09.88-.15v-7.91c-.28-.19-.66-.37-1.12-.54-.47-.17-.96-.25-1.49-.25-1.16,0-2.01.4-2.55,1.19s-.8,1.86-.8,3.22Z"/>
        <path class="cls-1" d="M188.02,75.84c-.35.37-.81.89-1.38,1.56-.57.67-1.18,1.41-1.83,2.23-.65.82-1.31,1.67-1.97,2.56s-1.25,1.74-1.78,2.55h7.12v2.66h-10.97v-1.98c.39-.7.87-1.47,1.45-2.3.58-.83,1.18-1.66,1.79-2.49.61-.84,1.23-1.63,1.83-2.39.61-.76,1.15-1.41,1.62-1.98h-6.36v-2.66h10.47v2.24Z"/>
        <path class="cls-1" d="M193.77,78.98c.4-.42.83-.88,1.29-1.36.46-.48.91-.97,1.35-1.45.44-.48.86-.95,1.25-1.4.4-.45.73-.84,1.02-1.17h3.77c-.88.98-1.8,2-2.78,3.06-.97,1.05-1.95,2.08-2.93,3.09.53.44,1.08.97,1.66,1.6.58.62,1.14,1.29,1.69,1.99.54.7,1.05,1.41,1.53,2.11.47.7.87,1.36,1.18,1.95h-3.69c-.32-.54-.68-1.12-1.09-1.71-.41-.6-.86-1.18-1.33-1.74-.48-.56-.96-1.09-1.45-1.6-.49-.5-.98-.93-1.45-1.28v6.33h-3.19v-19.94l3.19-.53v12.06Z"/>
        <path class="cls-1" d="M208.15,69.56c0,.6-.19,1.07-.58,1.42s-.84.53-1.37.53-1.01-.18-1.4-.53-.58-.83-.58-1.42.19-1.1.58-1.45c.39-.35.85-.53,1.4-.53s.99.18,1.37.53.58.84.58,1.45ZM207.81,87.4h-3.19v-13.8h3.19v13.8Z"/>
        <path class="cls-1" d="M210.4,80.56c0-1.21.18-2.28.54-3.19.36-.91.84-1.68,1.44-2.28.6-.61,1.28-1.06,2.06-1.37s1.57-.46,2.37-.46c1.9,0,3.38.59,4.45,1.77,1.06,1.18,1.6,2.94,1.6,5.28,0,.18,0,.37-.01.59,0,.22-.02.42-.04.59h-9.1c.09,1.11.48,1.96,1.17,2.57.69.61,1.7.91,3.02.91.77,0,1.48-.07,2.12-.21.64-.14,1.15-.29,1.52-.45l.42,2.61c-.18.09-.42.18-.73.28-.31.1-.66.19-1.06.26-.4.08-.82.15-1.28.2-.46.05-.92.08-1.4.08-1.21,0-2.27-.18-3.16-.54-.9-.36-1.64-.86-2.22-1.5-.58-.64-1.01-1.4-1.29-2.27-.28-.87-.42-1.82-.42-2.86ZM219.66,79.14c0-.44-.06-.86-.18-1.25-.12-.4-.3-.74-.54-1.03-.24-.29-.53-.52-.87-.69-.34-.17-.75-.25-1.23-.25s-.92.09-1.29.28c-.37.18-.68.43-.94.73-.26.3-.45.64-.59,1.03-.14.39-.24.78-.29,1.19h5.94Z"/>
        <path class="cls-1" d="M236.98,86c0,2.2-.56,3.81-1.68,4.83-1.12,1.02-2.83,1.53-5.13,1.53-.84,0-1.67-.07-2.47-.21-.8-.14-1.53-.33-2.18-.55l.58-2.72c.55.23,1.17.41,1.86.55.7.14,1.45.21,2.26.21,1.28,0,2.2-.26,2.74-.79.54-.53.82-1.31.82-2.35v-.53c-.32.16-.74.32-1.25.47-.52.16-1.11.24-1.78.24-.88,0-1.68-.14-2.41-.42-.73-.28-1.35-.69-1.87-1.24-.52-.54-.92-1.23-1.21-2.04s-.44-1.76-.44-2.84c0-1,.15-1.93.46-2.77s.76-1.57,1.35-2.16c.59-.6,1.31-1.06,2.15-1.4.84-.33,1.8-.5,2.87-.5s2.02.08,2.96.24c.93.16,1.72.33,2.37.5v11.95ZM228.09,80.14c0,1.35.29,2.34.88,2.97.59.62,1.35.94,2.28.94.51,0,.99-.07,1.44-.21.45-.14.81-.31,1.1-.5v-7.15c-.23-.05-.51-.1-.84-.14-.33-.04-.76-.07-1.27-.07-1.16,0-2.05.38-2.67,1.15-.62.76-.92,1.77-.92,3.02Z"/>
        <path class="cls-1" d="M252.81,80.48c0,1.09-.16,2.08-.48,2.98-.32.9-.76,1.66-1.34,2.29-.58.63-1.28,1.13-2.1,1.48-.82.35-1.72.53-2.7.53s-1.88-.18-2.69-.53c-.81-.35-1.5-.84-2.09-1.48-.58-.63-1.03-1.4-1.36-2.29-.33-.9-.49-1.89-.49-2.98s.16-2.08.49-2.97c.33-.89.78-1.65,1.37-2.28.59-.63,1.29-1.12,2.1-1.46.81-.34,1.7-.51,2.66-.51s1.86.17,2.68.51c.82.34,1.52.83,2.1,1.46.58.63,1.03,1.39,1.36,2.28.32.89.49,1.88.49,2.97ZM249.54,80.48c0-1.37-.29-2.46-.88-3.26-.59-.8-1.41-1.2-2.47-1.2s-1.88.4-2.47,1.2c-.59.8-.88,1.89-.88,3.26s.29,2.49.88,3.3c.59.81,1.41,1.21,2.47,1.21s1.88-.4,2.47-1.21c.59-.81.88-1.91.88-3.3Z"/>
      </g>
    </g>
    <g>
      <g>
        <path class="cls-1" d="M660.19,84.83c-.48-.29-.72-.82-.72-1.58,0-.39.09-.71.27-.97.17-.25.41-.45.7-.6.29-.14.62-.24.98-.29.36-.05.72-.08,1.07-.08.41,0,.78.03,1.11.08.33.05.59.11.77.16v3.55c-.51.11-1.26.16-2.25.16-.81,0-1.46-.15-1.93-.44M659.37,73.52c-.78.14-1.37.28-1.78.43l.4,2.6c.39-.14.89-.26,1.51-.37.62-.11,1.3-.16,2.04-.16.55,0,1,.07,1.36.21.36.14.65.34.88.6.22.25.37.55.46.89.09.34.13.69.13,1.06v.53c-.44-.11-.86-.18-1.25-.23-.39-.04-.76-.07-1.11-.07-.76,0-1.49.08-2.18.23-.7.15-1.31.4-1.84.75-.53.35-.95.79-1.26,1.34-.31.55-.47,1.21-.47,2.01s.14,1.53.41,2.09c.27.57.65,1.02,1.14,1.38s1.07.61,1.76.77c.69.16,1.45.24,2.28.24.41,0,.8,0,1.18-.03.38-.02.75-.04,1.1-.08-.35.27-.65.55-.9.85-.3.32-.55.66-.74,1.02-.19.36-.29.74-.29,1.15,0,.67.24,1.21.73,1.6.49.4,1.28.6,2.37.6.39,0,.78-.03,1.18-.09.4-.06.74-.15,1.02-.25l-.27-2.15c-.25.09-.48.15-.69.17-.21.03-.39.04-.53.04-.62,0-.93-.24-.93-.72,0-.23.07-.45.21-.66.14-.21.34-.44.59-.69.28-.3.57-.56.86-.79.29-.23.53-.43.73-.58v-8.4c0-.81-.09-1.56-.28-2.24-.19-.68-.49-1.26-.93-1.74-.43-.48-1.01-.85-1.74-1.11-.73-.27-1.62-.4-2.68-.4-.88,0-1.71.07-2.49.21M646.13,66.95l-3.21.53v20.04h3.21v-6.36c.48.35.96.78,1.46,1.29s.98,1.04,1.46,1.6c.48.57.92,1.15,1.34,1.75.41.6.78,1.18,1.1,1.72h3.71c-.32-.6-.71-1.25-1.19-1.96-.48-.71-.99-1.41-1.53-2.12-.55-.71-1.11-1.37-1.69-2-.58-.63-1.14-1.16-1.67-1.6.99-1.01,1.97-2.04,2.95-3.1.98-1.06,1.91-2.09,2.79-3.07h-3.79c-.28.33-.63.73-1.02,1.18-.4.45-.82.92-1.26,1.41-.44.48-.89.97-1.35,1.46-.46.49-.89.94-1.3,1.37v-12.11ZM632.34,84.95c-.66-.18-1.23-.36-1.71-.56l-.56,2.68c.3.12.82.29,1.56.49.74.2,1.72.31,2.94.31,1.82,0,3.22-.34,4.2-1.02.98-.68,1.47-1.68,1.47-3.01,0-.62-.08-1.15-.24-1.59-.16-.44-.41-.83-.76-1.18-.34-.35-.78-.65-1.31-.93-.53-.27-1.18-.55-1.94-.84-.46-.16-.85-.31-1.17-.46s-.57-.3-.77-.45c-.19-.15-.33-.31-.41-.49-.08-.18-.12-.38-.12-.61,0-.46.2-.8.61-1.02.41-.22.94-.33,1.59-.33.72,0,1.36.07,1.91.2.55.13,1,.28,1.35.44l.58-2.6c-.37-.14-.93-.29-1.67-.44-.74-.15-1.52-.23-2.33-.23-1.61,0-2.88.37-3.82,1.1-.94.73-1.41,1.74-1.41,3.01,0,.65.1,1.21.31,1.66.2.45.48.84.84,1.15s.77.6,1.26.84c.48.24,1.02.46,1.6.68.96.35,1.64.68,2.05.98.42.3.62.68.62,1.14,0,.5-.19.85-.58,1.05-.39.2-1.01.31-1.85.31s-1.6-.09-2.27-.27M627.14,68.14c-.39-.35-.85-.53-1.38-.53s-1.02.18-1.4.53c-.39.35-.58.84-.58,1.46s.2,1.08.58,1.43c.39.35.86.53,1.4.53s.99-.18,1.38-.53c.39-.35.58-.83.58-1.43s-.19-1.1-.58-1.46M626.09,91.15c.86-.86,1.29-2.2,1.29-4v-13.49h-3.21v13.44c0,.87-.15,1.52-.45,1.95-.3.43-.82.65-1.56.65-.55,0-1.01-.06-1.4-.19l-.42,2.63c.32.12.68.21,1.1.25.42.04.74.07.97.07,1.61,0,2.84-.43,3.7-1.3M611.82,79.22c.05-.41.15-.81.29-1.2.14-.39.34-.73.6-1.03.26-.3.57-.54.94-.73.37-.19.8-.28,1.3-.28s.89.08,1.23.25c.35.17.64.4.88.69.24.29.42.64.54,1.03.12.4.19.82.19,1.26h-5.96ZM608.9,83.53c.28.88.72,1.64,1.3,2.28.58.64,1.33,1.15,2.23,1.51.9.36,1.96.55,3.18.55.48,0,.94-.03,1.41-.08.46-.05.89-.12,1.29-.2.4-.08.75-.17,1.06-.27.31-.1.55-.19.73-.28l-.42-2.62c-.37.16-.88.31-1.53.45-.64.14-1.36.21-2.13.21-1.32,0-2.34-.31-3.03-.92-.7-.61-1.09-1.47-1.18-2.58h9.14c.02-.18.03-.38.04-.6,0-.22.01-.42.01-.6,0-2.35-.53-4.12-1.6-5.3-1.07-1.18-2.56-1.78-4.47-1.78-.81,0-1.61.15-2.38.46-.78.31-1.47.77-2.07,1.38-.6.61-1.08,1.37-1.44,2.29-.36.92-.55,1.99-.55,3.21,0,1.04.14,2,.43,2.87M605.75,77.59c-.33-.89-.8-1.65-1.41-2.28-.61-.63-1.35-1.11-2.21-1.45-.86-.33-1.85-.5-2.94-.5s-2.07.08-3.02.24c-.95.16-1.76.33-2.41.51v18.31h3.21v-5.38c.35.2.8.37,1.35.53.55.16,1.15.24,1.8.24.97,0,1.84-.18,2.61-.53.77-.35,1.41-.85,1.92-1.49.51-.64.9-1.4,1.18-2.28.27-.88.41-1.86.41-2.91,0-1.12-.16-2.12-.49-3.01M602.15,83.86c-.54.8-1.39,1.19-2.56,1.19-.53,0-1.03-.08-1.5-.25-.47-.17-.85-.35-1.13-.55v-7.92c.32-.09.64-.15.97-.17.33-.03.64-.04.94-.04,1.43,0,2.47.4,3.11,1.19.64.79.97,1.91.97,3.34,0,1.34-.27,2.41-.81,3.2M586.64,83.89c-.59.81-1.42,1.22-2.48,1.22s-1.89-.41-2.48-1.22c-.59-.81-.89-1.92-.89-3.31s.29-2.47.89-3.27c.59-.8,1.42-1.21,2.48-1.21s1.89.4,2.48,1.21c.59.8.89,1.9.89,3.27s-.3,2.5-.89,3.31M590.32,77.59c-.33-.89-.78-1.66-1.36-2.29-.59-.64-1.29-1.13-2.11-1.47-.82-.34-1.72-.52-2.69-.52s-1.86.17-2.68.52c-.81.35-1.52.84-2.11,1.47-.59.64-1.05,1.4-1.38,2.29-.33.89-.49,1.89-.49,2.98s.16,2.09.49,2.99c.33.9.78,1.67,1.36,2.31.58.64,1.28,1.13,2.09,1.48.81.35,1.71.53,2.7.53s1.89-.18,2.72-.53c.82-.35,1.52-.85,2.11-1.48.58-.64,1.03-1.41,1.35-2.31.32-.9.48-1.9.48-2.99s-.16-2.09-.49-2.98M576.47,73.84c-.16-.05-.37-.11-.64-.17-.27-.06-.54-.12-.82-.16-.28-.04-.57-.08-.85-.11-.28-.03-.53-.04-.74-.04-1.13,0-2.16.1-3.09.31-.93.2-1.7.42-2.32.65v13.2h3.21v-11.11c.16-.05.44-.11.83-.19.4-.07.77-.11,1.13-.11.62,0,1.16.05,1.63.15.47.1.83.19,1.1.28l.56-2.7ZM564.37,73.66h-3.21v11.21c-.21.05-.53.1-.97.13-.43.04-.84.05-1.23.05-1.08,0-1.83-.32-2.27-.95-.43-.64-.65-1.7-.65-3.18v-7.26h-3.21v7.77c0,.94.1,1.8.29,2.58.19.79.52,1.46.97,2.03.45.56,1.05,1.01,1.8,1.32.75.32,1.68.48,2.8.48,1.18,0,2.27-.08,3.26-.25.99-.17,1.79-.33,2.41-.49v-13.44ZM550.54,87.52v-2.84h-9.09v-5.38h7.53v-2.78h-7.53v-4.53h8.46v-2.84h-11.8v18.37h12.43ZM518.44,79.22c.05-.41.15-.81.29-1.2.14-.39.34-.73.6-1.03.26-.3.57-.54.94-.73.37-.19.8-.28,1.3-.28s.89.08,1.23.25c.35.17.64.4.87.69.24.29.42.64.55,1.03.12.4.19.82.19,1.26h-5.97ZM515.52,83.53c.28.88.72,1.64,1.3,2.28.58.64,1.33,1.15,2.23,1.51.9.36,1.96.55,3.18.55h.34c.12,0,.24-.01.35-.03-.51.46-.93.93-1.26,1.4-.33.48-.49.97-.49,1.49,0,.71.26,1.25.78,1.63.52.38,1.31.57,2.35.57.33,0,.71-.03,1.13-.08.41-.05.76-.14,1.05-.27l-.24-2.15c-.46.14-.86.21-1.22.21-.62,0-.93-.24-.93-.72,0-.21.09-.45.27-.7.18-.26.4-.52.66-.78.27-.27.55-.52.85-.76.3-.24.58-.45.85-.65l-.43-2.62c-.37.16-.88.31-1.52.45-.65.14-1.36.21-2.13.21-1.33,0-2.34-.31-3.04-.92-.7-.61-1.09-1.47-1.18-2.58h9.15c.02-.18.03-.38.04-.6,0-.22.01-.42.01-.6,0-2.35-.53-4.12-1.6-5.3-1.07-1.18-2.56-1.78-4.47-1.78-.81,0-1.61.15-2.39.46-.78.31-1.46.77-2.07,1.38-.6.61-1.08,1.37-1.44,2.29-.36.92-.55,1.99-.55,3.21,0,1.04.14,2,.43,2.87M511.87,68.14c-.39-.35-.85-.53-1.38-.53s-1.02.18-1.41.53c-.39.35-.58.84-.58,1.46s.19,1.08.58,1.43c.39.35.86.53,1.41.53s.99-.18,1.38-.53c.39-.35.58-.83.58-1.43s-.19-1.1-.58-1.46M512.11,73.66h-3.21v13.86h3.21v-13.86ZM493.82,87.52h3.2v-11.18c.21-.04.54-.08.98-.13.44-.05.87-.08,1.27-.08.55,0,1.01.08,1.39.23.38.15.68.39.9.72.22.33.38.75.48,1.27.1.52.15,1.15.15,1.9v7.29h3.21v-7.79c0-.94-.09-1.8-.28-2.58-.19-.79-.5-1.46-.95-2.01-.45-.56-1.06-.99-1.82-1.3-.76-.31-1.7-.46-2.83-.46-1.2,0-2.3.08-3.29.24-.99.16-1.8.33-2.41.51v13.41ZM486.17,87.37c.92-.36,1.67-.87,2.27-1.53.59-.65,1.03-1.42,1.32-2.31.29-.88.44-1.85.44-2.91v-11.48h-3.37v11.16c0,.83-.09,1.54-.28,2.13-.19.59-.45,1.07-.79,1.44-.35.37-.76.65-1.23.82-.48.18-1.01.27-1.59.27s-1.11-.09-1.58-.27c-.47-.18-.88-.45-1.22-.82-.35-.37-.61-.85-.8-1.44-.19-.59-.28-1.3-.28-2.13v-11.16h-3.36v11.48c0,1.06.14,2.03.42,2.91.28.89.72,1.65,1.31,2.31.59.65,1.34,1.16,2.24,1.53.9.36,1.98.54,3.23.54s2.34-.18,3.26-.54"/>
        <path class="cls-1" d="M667.41,43.12h-10.52v2.68h6.39c-.48.57-1.02,1.23-1.63,1.99-.61.76-1.22,1.56-1.84,2.4-.62.84-1.22,1.67-1.8,2.5-.58.83-1.07,1.6-1.46,2.31v1.99h11.03v-2.68h-7.16c.53-.81,1.13-1.66,1.79-2.56.66-.89,1.32-1.75,1.97-2.57.65-.82,1.27-1.57,1.84-2.24.57-.67,1.04-1.19,1.39-1.56v-2.25ZM645.76,48.68c.05-.41.15-.8.29-1.19.14-.39.34-.73.6-1.03.25-.3.57-.54.94-.73.37-.19.8-.28,1.3-.28s.89.08,1.23.25c.35.17.64.4.88.69.24.29.42.64.54,1.03.12.4.19.82.19,1.26h-5.96ZM642.84,52.99c.28.87.72,1.64,1.3,2.28.58.65,1.33,1.15,2.23,1.51.9.36,1.96.54,3.18.54.48,0,.94-.03,1.4-.08.46-.05.89-.12,1.29-.2.4-.08.75-.17,1.06-.27.31-.1.55-.19.73-.28l-.42-2.62c-.37.16-.88.31-1.52.45-.65.14-1.36.21-2.13.21-1.33,0-2.34-.31-3.03-.92-.7-.61-1.09-1.47-1.18-2.58h9.14c.02-.18.03-.37.04-.6,0-.22.01-.42.01-.6,0-2.35-.53-4.12-1.6-5.3-1.07-1.18-2.56-1.78-4.47-1.78-.81,0-1.61.16-2.38.47-.78.31-1.47.77-2.07,1.38-.6.61-1.08,1.37-1.44,2.29-.36.92-.54,1.99-.54,3.21,0,1.04.14,2,.42,2.88M640.57,43.12h-10.52v2.68h6.39c-.48.57-1.02,1.23-1.63,1.99-.61.76-1.22,1.56-1.84,2.4-.62.84-1.22,1.67-1.8,2.5-.58.83-1.07,1.6-1.46,2.31v1.99h11.03v-2.68h-7.16c.53-.81,1.13-1.66,1.79-2.56.66-.89,1.32-1.75,1.98-2.57.65-.82,1.27-1.57,1.84-2.24.57-.67,1.04-1.19,1.39-1.56v-2.25ZM628.37,43.3c-.16-.05-.37-.11-.64-.17-.27-.06-.54-.11-.82-.16-.28-.04-.57-.08-.85-.11-.28-.03-.53-.04-.74-.04-1.13,0-2.16.1-3.09.31-.93.2-1.7.42-2.32.65v13.2h3.21v-11.11c.16-.05.44-.11.84-.19.4-.07.77-.11,1.13-.11.62,0,1.16.05,1.63.15.47.1.84.19,1.1.28l.56-2.7ZM616.51,47.05c-.33-.89-.8-1.65-1.41-2.28-.61-.63-1.35-1.11-2.21-1.45-.87-.34-1.85-.51-2.94-.51s-2.07.08-3.02.24c-.95.16-1.76.33-2.41.5v18.32h3.21v-5.38c.35.19.8.37,1.35.53.55.16,1.15.24,1.8.24.97,0,1.84-.18,2.61-.53.77-.35,1.41-.85,1.92-1.48.51-.64.9-1.4,1.18-2.28.27-.88.41-1.85.41-2.91,0-1.11-.16-2.12-.49-3.01M612.9,53.32c-.54.8-1.39,1.19-2.56,1.19-.53,0-1.03-.08-1.5-.25-.47-.17-.84-.35-1.13-.54v-7.93c.32-.09.64-.15.97-.17.33-.03.64-.04.94-.04,1.43,0,2.47.4,3.12,1.19.64.8.97,1.91.97,3.34,0,1.34-.27,2.41-.81,3.21M585.6,48.68c.05-.41.15-.8.29-1.19.14-.39.34-.73.6-1.03.26-.3.57-.54.94-.73.37-.19.8-.28,1.3-.28s.89.08,1.23.25c.35.17.64.4.88.69.24.29.42.64.54,1.03.12.4.19.82.19,1.26h-5.96ZM582.68,52.99c.28.87.72,1.64,1.3,2.28.58.65,1.33,1.15,2.23,1.51.9.36,1.96.54,3.18.54.48,0,.94-.03,1.41-.08.46-.05.89-.12,1.29-.2.4-.08.75-.17,1.06-.27.31-.1.55-.19.73-.28l-.43-2.62c-.37.16-.88.31-1.52.45-.64.14-1.36.21-2.13.21-1.33,0-2.34-.31-3.03-.92-.7-.61-1.09-1.47-1.18-2.58h9.14c.02-.18.03-.37.04-.6,0-.22.01-.42.01-.6,0-2.35-.53-4.12-1.6-5.3-1.07-1.18-2.56-1.78-4.47-1.78-.81,0-1.61.16-2.39.47-.78.31-1.47.77-2.07,1.38-.6.61-1.08,1.37-1.45,2.29-.36.92-.54,1.99-.54,3.21,0,1.04.14,2,.43,2.88M567.89,56.98h3.21v-11.19c.21-.03.54-.08.98-.13.44-.05.86-.08,1.27-.08.55,0,1.01.07,1.39.23.38.15.68.39.9.72.22.33.38.75.48,1.27.1.52.15,1.15.15,1.9v7.29h3.21v-7.79c0-.94-.09-1.8-.28-2.58-.19-.78-.51-1.46-.96-2.01-.45-.56-1.06-.99-1.82-1.3-.76-.31-1.7-.47-2.83-.47-1.2,0-2.3.08-3.29.24-.99.16-1.79.33-2.41.5v13.41ZM556.25,42.98c-.78.14-1.37.28-1.78.43l.4,2.6c.39-.14.89-.27,1.51-.37.62-.11,1.3-.16,2.04-.16.55,0,1,.07,1.37.21.36.14.65.34.87.6.22.26.38.55.47.89.09.34.13.69.13,1.06v.53c-.44-.11-.86-.18-1.24-.23-.39-.04-.76-.07-1.11-.07-.76,0-1.49.08-2.19.23-.7.15-1.31.4-1.84.74-.53.35-.95.79-1.26,1.34-.31.55-.46,1.22-.46,2.01s.14,1.53.41,2.09c.27.57.65,1.03,1.14,1.38.49.35,1.07.61,1.76.77.69.16,1.45.24,2.28.24,1.25,0,2.38-.08,3.38-.23,1-.15,1.74-.28,2.24-.39v-8.4c0-.81-.09-1.56-.28-2.24-.19-.68-.49-1.26-.93-1.74-.43-.48-1.01-.85-1.74-1.11-.72-.27-1.62-.4-2.68-.4-.88,0-1.72.07-2.49.21M557.08,54.29c-.48-.29-.72-.82-.72-1.58,0-.39.09-.71.27-.97.18-.26.41-.45.7-.6.29-.14.62-.24.98-.29.36-.05.72-.08,1.08-.08.41,0,.78.03,1.11.08.34.05.59.11.77.16v3.55c-.51.11-1.26.16-2.25.16-.81,0-1.46-.15-1.93-.44M543.5,52.8c.48,1.48.96,2.87,1.42,4.18h2.61c.37-.81.75-1.74,1.14-2.78.39-1.04.78-2.15,1.17-3.34.39-1.18.78-2.43,1.17-3.74.39-1.31.77-2.64,1.14-4h-3.31c-.16.74-.35,1.54-.56,2.4-.21.86-.44,1.73-.68,2.62-.24.89-.48,1.76-.73,2.61-.25.85-.49,1.62-.72,2.33-.27-.81-.53-1.65-.78-2.52-.25-.87-.49-1.73-.72-2.6-.22-.86-.43-1.71-.62-2.53-.2-.82-.37-1.59-.53-2.32h-2.46c-.16.73-.34,1.5-.54,2.32-.2.82-.42,1.67-.65,2.53-.23.87-.47,1.73-.73,2.6-.26.86-.52,1.7-.78,2.52-.25-.71-.5-1.48-.74-2.33-.25-.85-.49-1.72-.72-2.61-.23-.89-.45-1.77-.67-2.62-.21-.86-.4-1.66-.56-2.4h-3.39c.37,1.36.75,2.7,1.14,4,.39,1.31.78,2.55,1.17,3.74.39,1.18.78,2.3,1.17,3.34.39,1.04.76,1.97,1.11,2.78h2.63c.46-1.31.92-2.7,1.39-4.18.47-1.48.9-2.99,1.31-4.55.41,1.56.85,3.07,1.34,4.55M526.99,53.35c-.59.81-1.42,1.22-2.48,1.22s-1.89-.41-2.48-1.22c-.59-.81-.89-1.92-.89-3.31s.29-2.47.89-3.27c.59-.8,1.42-1.21,2.48-1.21s1.89.4,2.48,1.21c.59.8.89,1.89.89,3.27s-.3,2.5-.89,3.31M530.67,47.05c-.33-.89-.78-1.65-1.36-2.29-.58-.64-1.29-1.13-2.11-1.47-.82-.35-1.72-.52-2.69-.52s-1.87.17-2.68.52c-.81.35-1.52.84-2.11,1.47-.59.64-1.05,1.4-1.38,2.29-.33.89-.49,1.89-.49,2.98s.16,2.09.49,2.99c.33.9.78,1.67,1.36,2.31.58.64,1.28,1.13,2.09,1.48.81.35,1.71.53,2.7.53s1.9-.18,2.72-.53c.82-.35,1.52-.85,2.11-1.48.58-.64,1.03-1.41,1.35-2.31.32-.9.48-1.9.48-2.99s-.16-2.09-.49-2.98M507.99,54.41c-.66-.18-1.23-.36-1.71-.56l-.56,2.68c.3.12.82.29,1.56.49.74.2,1.72.31,2.94.31,1.82,0,3.22-.34,4.2-1.02.98-.68,1.47-1.69,1.47-3.01,0-.62-.08-1.15-.24-1.59-.16-.44-.41-.84-.75-1.18-.35-.35-.78-.65-1.31-.93-.53-.27-1.18-.55-1.94-.84-.46-.16-.85-.31-1.17-.47-.32-.15-.57-.3-.77-.45-.19-.15-.33-.31-.41-.49-.08-.18-.12-.38-.12-.61,0-.46.2-.8.61-1.02.41-.22.94-.33,1.59-.33.72,0,1.36.07,1.91.2.55.13,1,.28,1.35.44l.58-2.6c-.37-.14-.93-.29-1.67-.44-.74-.15-1.52-.23-2.33-.23-1.61,0-2.88.37-3.82,1.1-.94.73-1.4,1.74-1.4,3.01,0,.65.1,1.21.3,1.66.2.45.48.84.84,1.15.35.32.77.6,1.26.84.49.24,1.02.46,1.6.68.95.35,1.64.68,2.05.98.42.3.62.68.62,1.14,0,.49-.19.84-.58,1.05-.39.2-1.01.31-1.86.31s-1.6-.09-2.27-.27M491.6,56.98h3.21v-11.19c.21-.03.54-.08.98-.13.44-.05.87-.08,1.27-.08.55,0,1.01.07,1.39.23.38.15.68.39.9.72.22.33.38.75.48,1.27.1.52.15,1.15.15,1.9v7.29h3.21v-7.79c0-.94-.09-1.8-.28-2.58-.19-.78-.5-1.46-.95-2.01-.45-.56-1.06-.99-1.82-1.3-.76-.31-1.71-.47-2.84-.47-1.2,0-2.3.08-3.29.24-.99.16-1.8.33-2.41.5v13.41ZM479.96,42.98c-.78.14-1.37.28-1.78.43l.4,2.6c.39-.14.89-.27,1.51-.37.62-.11,1.3-.16,2.04-.16.55,0,1,.07,1.37.21.36.14.65.34.87.6.22.26.37.55.46.89.09.34.13.69.13,1.06v.53c-.44-.11-.86-.18-1.24-.23-.39-.04-.76-.07-1.11-.07-.76,0-1.49.08-2.19.23-.7.15-1.31.4-1.84.74-.53.35-.95.79-1.26,1.34-.31.55-.46,1.22-.46,2.01s.13,1.53.41,2.09c.27.57.65,1.03,1.14,1.38.49.35,1.07.61,1.76.77.69.16,1.45.24,2.28.24,1.25,0,2.38-.08,3.38-.23,1-.15,1.74-.28,2.24-.39v-8.4c0-.81-.09-1.56-.28-2.24-.19-.68-.49-1.26-.93-1.74-.43-.48-1.01-.85-1.74-1.11-.72-.27-1.62-.4-2.68-.4-.88,0-1.71.07-2.49.21M480.78,54.29c-.48-.29-.71-.82-.71-1.58,0-.39.09-.71.26-.97.18-.26.41-.45.7-.6.29-.14.62-.24.98-.29.36-.05.72-.08,1.07-.08.41,0,.78.03,1.11.08.34.05.59.11.77.16v3.55c-.51.11-1.26.16-2.25.16-.81,0-1.46-.15-1.94-.44M462.75,56.98h3.21v-11.19c.21-.03.54-.08.98-.13.44-.05.86-.08,1.27-.08.55,0,1.01.07,1.39.23.38.15.68.39.9.72.22.33.38.75.48,1.27.1.52.15,1.15.15,1.9v7.29h3.21v-7.79c0-.94-.09-1.8-.28-2.58-.19-.78-.51-1.46-.96-2.01-.45-.56-1.06-.99-1.82-1.3-.76-.31-1.71-.47-2.84-.47-1.2,0-2.3.08-3.29.24-.99.16-1.79.33-2.41.5v13.41ZM446.47,37.92c-.94,1.01-1.41,2.41-1.41,4.22v14.84h3.21v-11.19h5.09v-2.68h-5.09v-.93c0-.9.2-1.63.6-2.2.4-.56,1.13-.85,2.19-.85.41,0,.78.04,1.13.11.35.07.64.15.89.24l.5-2.6c-.27-.11-.63-.21-1.1-.32-.47-.11-1.04-.16-1.71-.16-1.93,0-3.36.51-4.29,1.51M458.77,37.6c-.39-.35-.85-.53-1.38-.53s-1.02.18-1.41.53c-.39.35-.58.84-.58,1.46s.19,1.08.58,1.43c.39.35.86.53,1.41.53s.99-.18,1.38-.53c.39-.35.58-.83.58-1.43s-.2-1.1-.58-1.46M458.98,43.12h-3.21v13.86h3.21v-13.86ZM438.17,53.35c-.59.81-1.42,1.22-2.48,1.22s-1.89-.41-2.48-1.22c-.59-.81-.89-1.92-.89-3.31s.3-2.47.89-3.27c.59-.8,1.42-1.21,2.48-1.21s1.89.4,2.48,1.21c.59.8.89,1.89.89,3.27s-.3,2.5-.89,3.31M441.85,47.05c-.33-.89-.78-1.65-1.37-2.29-.58-.64-1.28-1.13-2.11-1.47-.82-.35-1.72-.52-2.69-.52s-1.87.17-2.68.52c-.81.35-1.52.84-2.11,1.47-.59.64-1.05,1.4-1.38,2.29-.33.89-.49,1.89-.49,2.98s.16,2.09.49,2.99c.33.9.78,1.67,1.37,2.31.58.64,1.28,1.13,2.09,1.48.81.35,1.71.53,2.7.53s1.89-.18,2.72-.53c.82-.35,1.52-.85,2.11-1.48.58-.64,1.03-1.41,1.35-2.31.32-.9.48-1.9.48-2.99s-.16-2.09-.49-2.98M425.86,43.58c-.49-1.18-1.2-2.15-2.11-2.92-.91-.77-2-1.33-3.27-1.7-1.27-.36-2.68-.54-4.22-.54-.74,0-1.59.03-2.54.08-.95.05-1.86.18-2.7.37v17.84c.85.19,1.74.32,2.68.38.94.06,1.78.09,2.52.09,1.55,0,2.97-.19,4.25-.57,1.28-.38,2.38-.96,3.29-1.75.91-.78,1.61-1.77,2.11-2.94s.74-2.56.74-4.15-.25-3.03-.74-4.2M414.35,41.39c.43-.05,1.13-.08,2.12-.08,2.26,0,3.93.56,5.01,1.67,1.08,1.11,1.62,2.71,1.62,4.8s-.55,3.64-1.66,4.78c-1.1,1.14-2.78,1.71-5.02,1.71-.55,0-.98,0-1.3-.01-.32,0-.57-.02-.77-.04v-12.83Z"/>
      </g>
      <g>
        <path class="cls-1" d="M824.25,22.47v84.3h-130.11V22.47h130.11M827.91,18.8h-137.44v91.63h137.44V18.8h0Z"/>
        <g>
          <polygon class="cls-1" points="759.2 29.72 760.32 33.17 763.95 33.17 761.01 35.3 762.13 38.75 759.2 36.62 756.26 38.75 757.38 35.3 754.45 33.17 758.07 33.17 759.2 29.72"/>
          <polygon class="cls-1" points="759.2 90.17 760.32 93.62 763.95 93.62 761.01 95.75 762.13 99.2 759.2 97.07 756.26 99.2 757.38 95.75 754.45 93.62 758.07 93.62 759.2 90.17"/>
          <polygon class="cls-1" points="729.2 59.8 730.32 63.26 733.95 63.26 731.02 65.39 732.14 68.84 729.2 66.7 726.27 68.84 727.39 65.39 724.45 63.26 728.08 63.26 729.2 59.8"/>
          <polygon class="cls-1" points="789.19 59.8 790.31 63.26 793.94 63.26 791 65.39 792.12 68.84 789.19 66.7 786.25 68.84 787.37 65.39 784.44 63.26 788.07 63.26 789.19 59.8"/>
          <polygon class="cls-1" points="774.13 33.87 775.25 37.32 778.88 37.32 775.94 39.45 777.07 42.9 774.13 40.77 771.2 42.9 772.32 39.45 769.38 37.32 773.01 37.32 774.13 33.87"/>
          <polygon class="cls-1" points="744.26 33.87 745.38 37.32 749.01 37.32 746.07 39.45 747.2 42.9 744.26 40.77 741.33 42.9 742.45 39.45 739.51 37.32 743.14 37.32 744.26 33.87"/>
          <polygon class="cls-1" points="774.13 85.76 775.25 89.21 778.88 89.21 775.94 91.34 777.07 94.79 774.13 92.66 771.2 94.79 772.32 91.34 769.38 89.21 773.01 89.21 774.13 85.76"/>
          <polygon class="cls-1" points="744.26 85.76 745.38 89.21 749.01 89.21 746.07 91.34 747.2 94.79 744.26 92.66 741.33 94.79 742.45 91.34 739.51 89.21 743.14 89.21 744.26 85.76"/>
          <polygon class="cls-1" points="785.13 44.71 786.25 48.16 789.88 48.16 786.94 50.3 788.06 53.75 785.13 51.61 782.19 53.75 783.31 50.3 780.38 48.16 784 48.16 785.13 44.71"/>
          <polygon class="cls-1" points="733.27 44.71 734.39 48.16 738.01 48.16 735.08 50.3 736.2 53.75 733.27 51.61 730.33 53.75 731.45 50.3 728.52 48.16 732.14 48.16 733.27 44.71"/>
          <polygon class="cls-1" points="785.13 74.74 786.25 78.19 789.88 78.19 786.94 80.32 788.06 83.77 785.13 81.64 782.19 83.77 783.31 80.32 780.38 78.19 784 78.19 785.13 74.74"/>
          <polygon class="cls-1" points="733.27 74.74 734.39 78.19 738.01 78.19 735.08 80.32 736.2 83.77 733.27 81.64 730.33 83.77 731.45 80.32 728.52 78.19 732.14 78.19 733.27 74.74"/>
        </g>
      </g>
    </g>
    <g>
      <path class="cls-1" d="M1077.74,83.51v9.88c-3.85-2.49-7.06-5.88-9.35-9.88h9.35Z"/>
      <path class="cls-1" d="M1089.25,83.51v14.12c-2.6-.35-5.14-1.07-7.52-2.1v-12.02h7.52Z"/>
      <path class="cls-1" d="M1077.74,98.02v12.41h-66.74v-30.91h11.2v19.96h41.96v-3.92h-37.75v-16.04h35.95c.43,1.39.93,2.71,1.54,3.99h.01c2.96,6.13,7.84,11.26,13.84,14.51"/>
      <path class="cls-1" d="M1089.25,101.66v8.77h-7.52v-10.59c2.42.89,4.95,1.5,7.52,1.82"/>
      <path class="cls-3" d="M1190.85,97.84l1.62-2.24-.5,1.36-.6.77c0,.18-.2.2-.51.12"/>
      <polygon class="cls-1" points="1186.54 45.22 1225.08 45.22 1222.65 48.46 1186.68 96.34 1186.54 96.49 1186.54 45.22"/>
      <polygon class="cls-1" points="1241.5 30.18 1233.16 41.3 1186.54 41.3 1186.54 30.18 1241.5 30.18"/>
      <polygon class="cls-1" points="1364.68 30.18 1364.68 80.3 1314.55 80.3 1314.55 71.89 1338.3 71.89 1338.3 67.97 1314.55 67.97 1314.55 45.22 1343.32 45.22 1343.32 41.3 1314.55 41.3 1314.55 30.18 1364.68 30.18"/>
      <path class="cls-1" d="M1110.03,42.37c-.29-.22-.61-.39-.93-.54-.22-.14-.46-.32-.71-.43-.22-.14-.46-.25-.71-.39-.25-.1-.54-.25-.82-.39-4.14-2-8.74-3.13-13.62-3.17v-18.65h-3.99v18.86c-2.57.29-5.1.93-7.52,1.82v-9.31h-3.99v11.13c-1.75.92-3.39,2.03-4.92,3.28-.36.28-.71.57-1.07.89-.25.22-.46.43-.71.64-.64.61-1.28,1.25-1.88,1.89-.14.18-.32.35-.46.53l-.04.04c-.14.18-.32.39-.46.57-.22.25-.43.5-.61.75-.32.36-.61.79-.89,1.18-.04,0-.04.04-.07.07-.1.18-.25.35-.35.57-.04.04-.07.07-.11.1-.1.18-.25.39-.35.58-.18.25-.32.5-.46.75-.22.29-.36.61-.54.93-2.6,4.67-4.02,10.01-4.02,15.58,0,3.39.53,6.7,1.56,9.88h4.21c-1.18-3.13-1.78-6.45-1.78-9.88,0-9.56,4.95-18.53,12.98-23.7v33.58h3.99v-35.76c2.38-1.03,4.92-1.74,7.52-2.06v37.82h3.99v-38.08c15.44.14,27.91,12.76,27.91,28.2,0,3.42-.57,6.74-1.78,9.88h-26.13v3.99h24.27c-4.2,7.45-11.47,12.51-19.71,13.94-1.5.25-3.03.39-4.56.43v3.96c1.53,0,3.06-.1,4.56-.36,15.47-2.32,27.34-15.72,27.34-31.83,0-11.48-6.06-21.6-15.11-27.27"/>
      <path class="cls-1" d="M1174.88,49.32c-5.34-5.25-13.23-8.01-22.81-8.01h-21.17v58.19h21.17c9.59,0,17.47-2.78,22.81-8.02,5.18-5.08,7.91-12.36,7.91-21.07s-2.74-16.01-7.91-21.08M1152.06,95.56h-16.98v-50.33h16.98c16.87,0,26.54,9.18,26.54,25.17s-9.67,25.16-26.54,25.16"/>
      <polygon class="cls-1" points="1280.14 41.31 1273.87 41.31 1243.26 67.52 1243.26 41.31 1239.07 41.31 1239.07 99.49 1243.26 99.49 1243.26 72.67 1274.48 99.34 1274.65 99.49 1281 99.49 1246.5 70.05 1280.14 41.31"/>
      <rect class="cls-1" x="1285.99" y="41.31" width="4.19" height="58.18"/>
      <polygon class="cls-1" points="1343.32 95.56 1343.32 99.48 1300.29 99.48 1300.29 41.3 1314.55 41.3 1314.55 45.22 1304.5 45.22 1304.5 67.97 1314.55 67.97 1314.55 71.89 1304.5 71.89 1304.5 95.56 1343.32 95.56"/>
      <polygon class="cls-3" points="1192.48 95.56 1192.76 95.18 1192.49 95.56 1192.47 95.59 1192.48 95.56"/>
      <polygon class="cls-1" points="1230.92 95.56 1230.92 99.48 1189.68 99.48 1190.85 97.84 1192.47 95.59 1192.49 95.56 1230.92 95.56"/>
      <polygon class="cls-1" points="1046.07 60.98 1046.07 65.62 1026.4 79.52 1022.19 79.52 1022.19 41.3 1026.4 41.3 1026.4 74.81 1046.07 60.98"/>
      <rect class="cls-2" x="1011" y="18.8" width="353.68" height="91.62"/>
    </g>
  </g>
  <rect class="cls-2" y="316.71" width="1417.32" height="182.54"/>
</svg>