<svg width="66" height="23" viewBox="0 0 66 23" fill="none" xmlns="http://www.w3.org/2000/svg">
<path d="M58.1611 8.5H47.7111L49.1311 14.17H58.1611C58.9411 14.17 59.5811 14.81 59.5811 15.59C59.5811 16.37 58.9511 17.01 58.1611 17.01H17.3711V22.68H58.1611C62.0711 22.68 65.2511 19.51 65.2511 15.59C65.2511 11.67 62.0811 8.5 58.1611 8.5Z" fill="white"/>
<path d="M63.2508 5.67H42.0508L44.0508 0H65.2508L63.2508 5.67Z" fill="white"/>
<path d="M5.68953 0H0.0195312V5.67H5.68953V0Z" fill="white"/>
<path d="M5.67 14.8V8.5H0V16.45C0 19.89 2.79 22.68 6.22 22.68H19.05V17.01H7.87C6.65 17.01 5.67 16.02 5.67 14.81" fill="white"/>
<path d="M39.21 22.68H13.59L15.59 17.01H39.22C40 17.01 40.64 16.37 40.64 15.59C40.64 14.81 40.01 14.17 39.22 14.17H15.59C11.68 14.17 8.5 11 8.5 7.08C8.5 3.16 11.68 0 15.59 0H44.08L42.08 5.67H15.59C14.81 5.67 14.17 6.3 14.17 7.09C14.17 7.88 14.81 8.51 15.59 8.51H39.21C43.12 8.51 46.3 11.68 46.3 15.6C46.3 19.52 43.13 22.69 39.21 22.69" fill="white"/>
</svg>
