<?xml version="1.0" encoding="UTF-8"?>
<svg id="_Слой_1" data-name="Слой_1" xmlns="http://www.w3.org/2000/svg" version="1.1" xmlns:xlink="http://www.w3.org/1999/xlink" viewBox="0 0 2246 822">
  
  <defs>
    <style>
      .st0 {
        fill: #e8e6e0;
      }

      .st1 {
        fill: #fff;
      }

      .st2 {
        mask: url(#mask);
      }
    </style>
    <mask id="mask" x=".49" y="0" width="2245.5" height="821.28" maskUnits="userSpaceOnUse">
      <g id="mask0_471_8">
        <path class="st1" d="M1536.86,0h-966.81C432.06,0,319.79,116.26,319.79,259.18s112.27,259.18,250.26,259.18h782.59c23.18,0,42.04,19.53,42.04,43.76,0,22.43-16.47,40.94-37.54,43.29-1.49.16-2.98.25-4.5.25H418.04c-88.69,0-160.85-74.72-160.85-166.58v-136.36H48.99v136.36c0,209.38,163.43,379.95,365.13,382.17,1.3.01,2.62.04,3.92.04h934.6c6.89,0,13.69-.37,20.42-.94h597.09c144.76,0,262.55-109.76,262.55-244.65,0-155.62-112.89-272.98-262.55-272.98h-344.5l104.32,215.64h248.33c21.76,0,39.74,17.53,41.05,40.01l.1,1.9c.07.84.08,1.7.08,2.55,0,23.51-18.4,42.59-41.11,42.59h-379.33c2.34-14.18,3.81-28.66,3.81-43.5,0-142.93-112.27-259.19-250.26-259.19h-782.59c-23.2,0-42.06-19.53-42.06-43.54s18.86-43.55,42.06-43.55h1571.83L2245.99,0h-709.13Z"/>
      </g>
    </mask>
  </defs>
  <g class="st2">
    <path class="st0" d="M1536.86,0h-966.81c-138,0-250.26,116.26-250.26,259.18s112.27,259.18,250.26,259.18h782.59c23.18,0,42.04,19.53,42.04,43.76,0,22.43-16.47,40.94-37.54,43.29-1.49.16-2.98.25-4.5.25H418.04c-88.69,0-174.05-67.3-174.05-159.15l-16.5-72-7.5-71.79H.49v139.29c0,209.38,211.93,377.03,413.63,379.24,1.3.01,2.62.04,3.92.04h934.6c6.89,0,13.69-.37,20.42-.94h597.09c144.76,0,262.55-109.76,262.55-244.65,0-155.62-112.89-272.98-262.55-272.98h-156.15l-17.5,85.79-49.01,129.85h230.81c21.76,0,39.74,17.53,41.05,40.01l.1,1.9c.07.84.08,1.7.08,2.55,0,23.51-18.4,42.59-41.11,42.59h-379.33c2.34-14.18,3.81-28.66,3.81-43.5,0-142.93-112.27-259.19-250.26-259.19h-782.59c-23.2,0-42.06-19.53-42.06-43.54s18.86-43.55,42.06-43.55h1571.83L2245.99,0h-709.13Z"/>
  </g>
</svg>